<svg xmlns="http://www.w3.org/2000/svg" viewBox="0 0 270 250" width="270" height="250" preserveAspectRatio="xMidYMid meet"><defs><clipPath id="__lottie_element_10"><rect width="270" height="250" x="0" y="0"></rect></clipPath><linearGradient id="__lottie_element_14" spreadMethod="pad" gradientUnits="userSpaceOnUse" x1="0.34200000762939453" y1="-31.166000366210938" x2="-0.6809999942779541" y2="22.802000045776367"><stop offset="0%" stop-color="rgb(255,225,30)"></stop><stop offset="29%" stop-color="rgb(251,226,94)"></stop><stop offset="57%" stop-color="rgb(248,227,157)"></stop><stop offset="79%" stop-color="rgb(250,210,121)"></stop><stop offset="100%" stop-color="rgb(252,193,86)"></stop></linearGradient><mask id="__lottie_element_15" mask-type="alpha"><g transform="matrix(1,0,0,1,135,125)" opacity="1" style="display: block;"><g opacity="1" transform="matrix(1,0,0,1,0,0)"><path stroke-linecap="butt" stroke-linejoin="miter" fill-opacity="0" stroke-miterlimit="4" stroke="rgb(255,48,48)" stroke-opacity="1" stroke-width="41" d=" M64,-101 C64,-101 106,-45 106,-45 C106,-45 113,21 109,32 C105,43 54,87 46,89 C38,91 3,91 3,91"></path></g></g></mask><linearGradient id="__lottie_element_21" spreadMethod="pad" gradientUnits="userSpaceOnUse" x1="0" y1="-134.80499267578125" x2="-4.223999977111816" y2="138.29800415039062"><stop offset="0%" stop-color="rgb(255,225,30)"></stop><stop offset="29%" stop-color="rgb(255,217,37)"></stop><stop offset="57%" stop-color="rgb(255,209,44)"></stop><stop offset="79%" stop-color="rgb(241,187,38)"></stop><stop offset="100%" stop-color="rgb(227,165,32)"></stop></linearGradient><linearGradient id="__lottie_element_22" spreadMethod="pad" gradientUnits="userSpaceOnUse" x1="0.0949999988079071" y1="-23.770000457763672" x2="0.7590000033378601" y2="22.323999404907227"><stop offset="0%" stop-color="rgb(255,225,30)"></stop><stop offset="35%" stop-color="rgb(251,226,94)"></stop><stop offset="70%" stop-color="rgb(248,227,157)"></stop><stop offset="85%" stop-color="rgb(250,210,121)"></stop><stop offset="100%" stop-color="rgb(252,193,86)"></stop></linearGradient><mask id="__lottie_element_23" mask-type="alpha"><g transform="matrix(1,0,0,1,135,125)" opacity="1" style="display: block;"><g opacity="1" transform="matrix(1,0,0,1,0,0)"><path stroke-linecap="butt" stroke-linejoin="miter" fill-opacity="0" stroke-miterlimit="4" stroke="rgb(255,48,48)" stroke-opacity="1" stroke-width="41" d=" M-53,-100 C-53,-100 -95,-73 -96,-64 C-97,-55 -111,-2 -106,20 C-101,42 -84,58 -75,68 C-66,78 1,94 1,94"></path></g></g></mask><linearGradient id="__lottie_element_29" spreadMethod="pad" gradientUnits="userSpaceOnUse" x1="0" y1="-134.80499267578125" x2="-4.223999977111816" y2="138.29800415039062"><stop offset="0%" stop-color="rgb(255,225,30)"></stop><stop offset="29%" stop-color="rgb(255,217,37)"></stop><stop offset="57%" stop-color="rgb(255,209,44)"></stop><stop offset="79%" stop-color="rgb(241,187,38)"></stop><stop offset="100%" stop-color="rgb(227,165,32)"></stop></linearGradient><linearGradient id="__lottie_element_30" spreadMethod="pad" gradientUnits="userSpaceOnUse" x1="0.0949999988079071" y1="-23.770000457763672" x2="0.7590000033378601" y2="22.323999404907227"><stop offset="0%" stop-color="rgb(255,225,30)"></stop><stop offset="35%" stop-color="rgb(251,226,94)"></stop><stop offset="70%" stop-color="rgb(248,227,157)"></stop><stop offset="85%" stop-color="rgb(250,210,121)"></stop><stop offset="100%" stop-color="rgb(252,193,86)"></stop></linearGradient></defs><g clip-path="url(#__lottie_element_10)"><g mask="url(#__lottie_element_23)" style="display: block;"><g transform="matrix(0.699999988079071,0,0,0.699999988079071,11.300003051757812,20.70000457763672)" opacity="1"><path fill="url(#__lottie_element_29)" fill-opacity="1" d=" M281.9670104980469,19.714000701904297 C283.0780029296875,22.757999420166016 284.79901123046875,25.371000289916992 286.62200927734375,27.52400016784668 C284.2120056152344,26.0310001373291 281.35198974609375,24.698999404907227 278.1390075683594,24.01799964904785 C268.1400146484375,21.898000717163086 258.5690002441406,26.874000549316406 258.5690002441406,26.874000549316406 C258.5690002441406,26.874000549316406 265.21099853515625,35.28499984741211 275.2080078125,37.40399932861328 C283.09600830078125,39.07600021362305 290.6969909667969,36.3390007019043 293.56298828125,35.10599899291992 C297.3949890136719,38.82699966430664 301.0249938964844,42.733001708984375 304.4330139160156,46.81399917602539 C303.5119934082031,46.19200134277344 302.552001953125,45.60100173950195 301.5069885253906,45.09400177001953 C292.33099365234375,40.6510009765625 281.8210144042969,43.19200134277344 281.8210144042969,43.19200134277344 C281.8210144042969,43.19200134277344 286.18798828125,52.9379997253418 295.364013671875,57.38100051879883 C302.760986328125,60.9630012512207 311.02099609375,60.00600051879883 313.9490051269531,59.500999450683594 C316.3169860839844,63.0359992980957 318.5419921875,66.66600036621094 320.5950012207031,70.39299774169922 C319.59698486328125,69.38300323486328 318.49798583984375,68.41899871826172 317.26300048828125,67.55699920654297 C308.9159851074219,61.74100112915039 298.12799072265625,62.61199951171875 298.12799072265625,62.61199951171875 C298.12799072265625,62.61199951171875 300.875,72.91600036621094 309.2200012207031,78.73100280761719 C315.83099365234375,83.33899688720703 323.9679870605469,83.7490005493164 327.0669860839844,83.72000122070312 C328.60198974609375,87.33599853515625 329.989990234375,91.01899719238281 331.2250061035156,94.76799774169922 C330.7869873046875,94.17500305175781 330.3210144042969,93.59200286865234 329.81298828125,93.0270004272461 C323.0329895019531,85.49199676513672 312.3269958496094,83.9219970703125 312.3269958496094,83.9219970703125 C312.3269958496094,83.9219970703125 312.6130065917969,94.56999969482422 319.3940124511719,102.1050033569336 C324.7080078125,108.01100158691406 332.4309997558594,110.2509994506836 335.52301025390625,110.94499969482422 C336.52398681640625,115.89099884033203 337.2569885253906,120.92400360107422 337.7250061035156,126.02899932861328 C337.51300048828125,125.55999755859375 337.2900085449219,125.09200286865234 337.0400085449219,124.62899780273438 C332.25,115.73699951171875 322.2200012207031,111.73400115966797 322.2200012207031,111.73400115966797 C322.2200012207031,111.73400115966797 319.9549865722656,122.14900207519531 324.7439880371094,131.04100036621094 C328.4729919433594,137.96400451660156 335.37701416015625,141.9219970703125 338.2539978027344,143.33599853515625 C338.1340026855469,147.2530059814453 337.85198974609375,151.1320037841797 337.4159851074219,154.96800231933594 C334.7980041503906,145.4810028076172 326.364013671875,139.40699768066406 326.364013671875,139.40699768066406 C326.364013671875,139.40699768066406 321.5979919433594,148.968994140625 324.052001953125,158.74000549316406 C325.927001953125,166.20799255371094 331.4670104980469,171.62399291992188 333.9779968261719,173.76800537109375 C332.9440002441406,177.83599853515625 331.7349853515625,181.84100341796875 330.3550109863281,185.77200317382812 C330.37298583984375,184.97799682617188 330.35101318359375,184.1719970703125 330.2820129394531,183.3560028076172 C329.4320068359375,173.32699584960938 321.8080139160156,165.76600646972656 321.8080139160156,165.76600646972656 C321.8080139160156,165.76600646972656 315.56500244140625,174.46600341796875 316.4150085449219,184.4949951171875 C317.0849914550781,192.37600708007812 321.9200134277344,198.71299743652344 323.9679870605469,201.0749969482422 C321.74700927734375,205.63800048828125 319.2850036621094,210.07400512695312 316.6050109863281,214.37600708007812 C316.8280029296875,213.4759979248047 317.0090026855469,212.5489959716797 317.12298583984375,211.59500122070312 C318.3160095214844,201.60000610351562 312.37200927734375,192.697998046875 312.37200927734375,192.697998046875 C312.37200927734375,192.697998046875 304.4939880371094,200.0030059814453 303.302001953125,209.9969940185547 C302.37701416015625,217.7689971923828 305.7539978027344,224.85699462890625 307.3059997558594,227.63699340820312 C304.239990234375,231.5399932861328 300.97900390625,235.29800415039062 297.5329895019531,238.89599609375 C297.7239990234375,238.4709930419922 297.906005859375,238.04100036621094 298.0740051269531,237.5970001220703 C301.6210021972656,228.1580047607422 297.968994140625,218.13099670410156 297.968994140625,218.13099670410156 C297.968994140625,218.13099670410156 288.5679931640625,223.4080047607422 285.0220031738281,232.84800720214844 C282.28399658203125,240.13099670410156 283.83099365234375,247.75900268554688 284.6820068359375,250.86599731445312 C281.2720031738281,253.70199584960938 277.7330017089844,256.40301513671875 274.0719909667969,258.9580078125 C274.1679992675781,258.82598876953125 274.2760009765625,258.7099914550781 274.3689880371094,258.57501220703125 C280.13800048828125,250.26600646972656 279.0690002441406,239.66700744628906 279.0690002441406,239.66700744628906 C279.0690002441406,239.66700744628906 268.6470031738281,242.54200744628906 262.8789978027344,250.85299682617188 C258.1789855957031,257.62200927734375 258.01800537109375,265.90899658203125 258.1189880371094,268.7489929199219 C254.9219970703125,270.4630126953125 251.65499877929688,272.0780029296875 248.32400512695312,273.5820007324219 C248.375,273.52899169921875 248.4290008544922,273.4800109863281 248.4810028076172,273.427001953125 C255.51400756835938,266.1180114746094 256.16400146484375,255.48699951171875 256.16400146484375,255.48699951171875 C256.16400146484375,255.48699951171875 245.41000366210938,256.7019958496094 238.3769989013672,264.010986328125 C233.04600524902344,269.5509948730469 231.38400268554688,276.99700927734375 230.89199829101562,280.2770080566406 C226.02099609375,281.83099365234375 221.0449981689453,283.1679992675781 215.97500610351562,284.27398681640625 C217.29600524902344,283.5889892578125 218.60000610351562,282.77801513671875 219.83599853515625,281.80499267578125 C227.822998046875,275.51800537109375 229.9550018310547,265.0769958496094 229.9550018310547,265.0769958496094 C229.9550018310547,265.0769958496094 219.13299560546875,264.82501220703125 211.14599609375,271.1080017089844 C204.69400024414062,276.18701171875 202.06399536132812,283.97198486328125 201.29100036621094,286.77899169921875 C194.468994140625,287.63299560546875 187.51400756835938,288.08099365234375 180.44900512695312,288.08099365234375 C175.343994140625,288.08099365234375 170.2969970703125,287.8420104980469 165.31500244140625,287.3919982910156 C164.3260040283203,284.1319885253906 161.6269989013672,277.1440124511719 155.6750030517578,272.4620056152344 C147.68699645996094,266.177001953125 136.8679962158203,266.4309997558594 136.8679962158203,266.4309997558594 C136.8679962158203,266.4309997558594 138.9969940185547,276.87200927734375 146.98599243164062,283.1570129394531 C148.05999755859375,284.00201416015625 149.18600463867188,284.72198486328125 150.3280029296875,285.34600830078125 C144.10499572753906,284.20599365234375 138.01199340820312,282.72198486328125 132.07200622558594,280.9110107421875 C131.70799255371094,278.0639953613281 130.20599365234375,269.9429931640625 124.49600219726562,264.010986328125 C117.46399688720703,256.7019958496094 106.71099853515625,255.48699951171875 106.71099853515625,255.48699951171875 C106.71099853515625,255.48699951171875 107.36000061035156,266.1180114746094 114.39399719238281,273.427001953125 C115.01599884033203,274.072998046875 115.66899871826172,274.6669921875 116.33999633789062,275.22100830078125 C112.3759994506836,273.552001953125 108.4990005493164,271.7349853515625 104.71499633789062,269.77301025390625 C104.81700134277344,266.93701171875 104.65899658203125,258.6440124511719 99.95600128173828,251.87100219726562 C94.18699645996094,243.56199645996094 83.76599884033203,240.68600463867188 83.76599884033203,240.68600463867188 C83.76599884033203,240.68600463867188 82.69599914550781,251.28399658203125 88.46700286865234,259.5950012207031 C88.72100067138672,259.9630126953125 89.00599670410156,260.2950134277344 89.27799987792969,260.6419982910156 C85.12200164794922,257.85699462890625 81.11399841308594,254.88699340820312 77.26799774169922,251.7429962158203 C78.08699798583984,248.89199829101562 79.87100219726562,240.9499969482422 77.0270004272461,233.3820037841797 C73.4800033569336,223.9409942626953 64.0790023803711,218.66400146484375 64.0790023803711,218.66400146484375 C64.0790023803711,218.66400146484375 60.428001403808594,228.6909942626953 63.974998474121094,238.12899780273438 C64.31300354003906,239.02999877929688 64.70899963378906,239.88600158691406 65.14099884033203,240.70899963378906 C61.74599838256836,237.27999877929688 58.52199935913086,233.6999969482422 55.47800064086914,229.98199462890625 C56.909000396728516,227.5070037841797 60.66600036621094,220.0959930419922 59.694000244140625,211.9600067138672 C58.50199890136719,201.96499633789062 50.625,194.66099548339844 50.625,194.66099548339844 C50.625,194.66099548339844 44.68199920654297,203.56199645996094 45.87300109863281,213.5570068359375 C46.09199905395508,215.38900756835938 46.54100036621094,217.1230010986328 47.119998931884766,218.7449951171875 C43.45000076293945,213.29299926757812 40.14899826049805,207.6009979248047 37.24100112915039,201.70199584960938 C39.22200012207031,199.44200134277344 44.2239990234375,193.01400756835938 44.90399932861328,184.9949951171875 C45.75400161743164,174.96600341796875 39.51100158691406,166.26600646972656 39.51100158691406,166.26600646972656 C39.51100158691406,166.26600646972656 31.886999130249023,173.82699584960938 31.03700065612793,183.85499572753906 C30.944000244140625,184.947998046875 30.94099998474121,186.02099609375 31.000999450683594,187.0709991455078 C29.51300048828125,182.9600067138672 28.219999313354492,178.76699829101562 27.11199951171875,174.5050048828125 C29.496000289916992,172.51300048828125 35.332000732421875,166.9949951171875 37.266998291015625,159.28399658203125 C39.72100067138672,149.51499938964844 34.95500183105469,139.95199584960938 34.95500183105469,139.95199584960938 C34.95500183105469,139.95199584960938 26.21299934387207,146.2310028076172 23.757999420166016,156 C23.722000122070312,156.14700317382812 23.694000244140625,156.29200744628906 23.660999298095703,156.43800354003906 C23.114999771118164,152.03700256347656 22.763999938964844,147.57899475097656 22.635000228881836,143.07000732421875 C25.30299949645996,141.79600524902344 32.57500076293945,137.80599975585938 36.43899917602539,130.6320037841797 C41.22800064086914,121.74099731445312 38.9630012512207,111.32499694824219 38.9630012512207,111.32499694824219 C38.9630012512207,111.32499694824219 28.933000564575195,115.3270034790039 24.14299964904785,124.22000122070312 C23.768999099731445,124.91300201416016 23.44099998474121,125.61499786376953 23.14900016784668,126.3219985961914 C23.628000259399414,120.97599792480469 24.408000946044922,115.71199798583984 25.472000122070312,110.54000091552734 C28.599000930786133,109.83399963378906 36.263999938964844,107.58399963378906 41.54800033569336,101.71199798583984 C48.32699966430664,94.177001953125 48.612998962402344,83.52999877929688 48.612998962402344,83.52999877929688 C48.612998962402344,83.52999877929688 37.90599822998047,85.0999984741211 31.128000259399414,92.63600158691406 C30.676000595092773,93.13700103759766 30.260000228881836,93.65499877929688 29.864999771118164,94.18000030517578 C31.14299964904785,90.36100006103516 32.58000183105469,86.60700225830078 34.16899871826172,82.9260025024414 C37.26599884033203,82.95500183105469 45.40599822998047,82.54499816894531 52.01900100708008,77.93699645996094 C60.36399841308594,72.12100219726562 63.108001708984375,61.819000244140625 63.108001708984375,61.819000244140625 C63.108001708984375,61.819000244140625 52.321998596191406,60.94599914550781 43.974998474121094,66.76200103759766 C42.83399963378906,67.55799865722656 41.819000244140625,68.447998046875 40.880001068115234,69.37300109863281 C42.930999755859375,65.72100067138672 45.143001556396484,62.1619987487793 47.499000549316406,58.696998596191406 C51.01300048828125,59.19200134277344 58.41400146484375,59.667999267578125 65.11100006103516,56.42499923706055 C74.28700256347656,51.981998443603516 78.65399932861328,42.23699951171875 78.65399932861328,42.23699951171875 C78.65399932861328,42.23699951171875 68.14399719238281,39.69599914550781 58.965999603271484,44.138999938964844 C58.82699966430664,44.207000732421875 58.70199966430664,44.290000915527344 58.56399917602539,44.361000061035156 C61.41600036621094,41.09000015258789 64.40899658203125,37.93299865722656 67.54100036621094,34.90399932861328 C69.95700073242188,35.99599838256836 77.99600219726562,39.17599868774414 86.3550033569336,37.40399932861328 C96.35399627685547,35.28499984741211 102.99400329589844,26.874000549316406 102.99400329589844,26.874000549316406 C102.99400329589844,26.874000549316406 93.42400360107422,21.898000717163086 83.4260025024414,24.01799964904785 C80.21399688720703,24.698999404907227 77.35299682617188,26.0310001373291 74.94300079345703,27.523000717163086 C76.76599884033203,25.371000289916992 78.48699951171875,22.757999420166016 79.5979995727539,19.714000701904297 C83.05699920654297,10.243000030517578 79.31199645996094,0.25 79.31199645996094,0.25 C79.31199645996094,0.25 69.95999908447266,5.611999988555908 66.5009994506836,15.085000038146973 C63.930999755859375,22.124000549316406 65.33899688720703,29.448999404907227 66.23200225830078,32.74800109863281 C61.257999420166016,37.51599884033203 56.61199951171875,42.59000015258789 52.334999084472656,47.94300079345703 C53.22999954223633,45.80699920654297 53.930999755859375,43.430999755859375 54.191001892089844,40.87900161743164 C55.21099853515625,30.864999771118164 49.11399841308594,22.065000534057617 49.11399841308594,22.065000534057617 C49.11399841308594,22.065000534057617 41.362998962402344,29.5 40.345001220703125,39.513999938964844 C39.470001220703125,48.11600112915039 43.83599853515625,55.80500030517578 45.0880012512207,57.80699920654297 C42.7869987487793,61.21500015258789 40.62699890136719,64.71299743652344 38.6150016784668,68.29900360107422 C38.762001037597656,67.0009994506836 38.81800079345703,65.65899658203125 38.73500061035156,64.28700256347656 C38.13100051879883,54.23899841308594 30.695999145507812,46.5 30.695999145507812,46.5 C30.695999145507812,46.5 24.239999771118164,55.04999923706055 24.8439998626709,65.09600067138672 C25.315000534057617,72.91000366210938 29.906999588012695,79.31099700927734 31.929000854492188,81.7770004272461 C29.820999145507812,86.63800048828125 27.968000411987305,91.62200164794922 26.395999908447266,96.71900177001953 C26.27899932861328,94.98400115966797 25.993999481201172,93.19100189208984 25.45199966430664,91.4000015258789 C22.53700065612793,81.75299835205078 13.505999565124512,75.88500213623047 13.505999565124512,75.88500213623047 C13.505999565124512,75.88500213623047 9.197999954223633,85.65499877929688 12.11400032043457,95.3030014038086 C14.416000366210938,102.91799926757812 20.516000747680664,108.16500091552734 22.988000869750977,110.04299926757812 C21.7189998626709,116.20899963378906 20.847999572753906,122.50599670410156 20.399999618530273,128.91200256347656 C19.885000228881836,127.37300109863281 19.21500015258789,125.82599639892578 18.332000732421875,124.33100128173828 C13.192999839782715,115.62999725341797 3.0139999389648438,112.01399993896484 3.0139999389648438,112.01399993896484 C3.0139999389648438,112.01399993896484 1.1629999876022339,122.50800323486328 6.300000190734863,131.2100067138672 C10.21399974822998,137.83900451660156 17.052000045776367,141.51499938964844 20.08799934387207,142.88900756835938 C20.267000198364258,149.5800018310547 20.915000915527344,156.16099548339844 21.98900032043457,162.61099243164062 C20.975000381469727,160.84100341796875 19.7189998626709,159.0850067138672 18.14900016784668,157.49600219726562 C11.017999649047852,150.28199768066406 0.25,149.20599365234375 0.25,149.20599365234375 C0.25,149.20599365234375 1.0429999828338623,159.82699584960938 8.17300033569336,167.04400634765625 C13.734000205993652,172.6699981689453 21.506999969482422,174.56199645996094 24.658000946044922,175.1230010986328 C25.906999588012695,179.92100524902344 27.39699935913086,184.63099670410156 29.118000030517578,189.23899841308594 C28.115999221801758,188.16299438476562 26.99799919128418,187.13099670410156 25.73699951171875,186.20599365234375 C17.53700065612793,180.19200134277344 6.73199987411499,180.8090057373047 6.73199987411499,180.8090057373047 C6.73199987411499,180.8090057373047 9.222000122070312,191.1739959716797 17.422000885009766,197.18800354003906 C23.742000579833984,201.82000732421875 31.604000091552734,202.51800537109375 34.88100051879883,202.593994140625 C37.56999969482422,208.06199645996094 40.59400177001953,213.35499572753906 43.930999755859375,218.447998046875 C43.05400085449219,217.88800048828125 42.141998291015625,217.35499572753906 41.15599822998047,216.8979949951172 C31.90399932861328,212.60899353027344 21.43899917602539,215.3260040283203 21.43899917602539,215.3260040283203 C21.43899917602539,215.3260040283203 25.972999572753906,224.99600219726562 35.22600173950195,229.28500366210938 C42.23899841308594,232.53599548339844 49.94499969482422,231.76199340820312 53.26599884033203,231.1959991455078 C56.888999938964844,235.64300537109375 60.76300048828125,239.89599609375 64.875,243.9340057373047 C63.41299819946289,243.3159942626953 61.84700012207031,242.8040008544922 60.1870002746582,242.46800231933594 C50.16899871826172,240.43800354003906 40.64500045776367,245.50100708007812 40.64500045776367,245.50100708007812 C40.64500045776367,245.50100708007812 47.36399841308594,253.8509979248047 57.38199996948242,255.8800048828125 C65.12200164794922,257.4469909667969 72.5459976196289,254.78799438476562 75.53099822998047,253.4949951171875 C80.68499755859375,257.7139892578125 86.13300323486328,261.6210021972656 91.83000183105469,265.1990051269531 C89.9469985961914,264.82501220703125 87.93900299072266,264.62200927734375 85.86100006103516,264.7080078125 C75.64299774169922,265.1319885253906 67.6520004272461,272.3169860839844 67.6520004272461,272.3169860839844 C67.6520004272461,272.3169860839844 76.2300033569336,278.81298828125 86.4469985961914,278.3890075683594 C94.24600219726562,278.06500244140625 100.73400115966797,273.81298828125 103.3740005493164,271.81298828125 C108.0270004272461,274.2300109863281 112.81600189208984,276.43701171875 117.73400115966797,278.4169921875 C116.08200073242188,278.40399169921875 114.37200164794922,278.5329895019531 112.64299774169922,278.8800048828125 C102.62200164794922,280.8900146484375 95.88899993896484,289.22900390625 95.88899993896484,289.22900390625 C95.88899993896484,289.22900390625 105.4020004272461,294.3089904785156 115.4229965209961,292.2980041503906 C123.10399627685547,290.7569885253906 128.83999633789062,285.510009765625 131.10699462890625,283.13800048828125 C137.31100463867188,285.0360107421875 143.67999267578125,286.58599853515625 150.18699645996094,287.7640075683594 C148.8070068359375,287.9840087890625 147.4080047607422,288.31298828125 146.01600646972656,288.7959899902344 C136.3719940185547,292.14599609375 130.86900329589844,301.3169860839844 130.86900329589844,301.3169860839844 C130.86900329589844,301.3169860839844 141.0019989013672,305.0589904785156 150.64700317382812,301.7099914550781 C158.80499267578125,298.8760070800781 163.98500061035156,291.8970031738281 165.39100646972656,289.8080139160156 C170.35000610351562,290.2449951171875 175.37100219726562,290.4800109863281 180.44900512695312,290.4800109863281 C187.72000122070312,290.4800109863281 194.8769989013672,290.0119934082031 201.89599609375,289.12200927734375 C203.78700256347656,291.7590026855469 208.7449951171875,297.7770080566406 216.1739959716797,300.35699462890625 C225.8179931640625,303.70599365234375 235.95199584960938,299.9649963378906 235.95199584960938,299.9649963378906 C235.95199584960938,299.9649963378906 230.4510040283203,290.7929992675781 220.80599975585938,287.4440002441406 C219.56900024414062,287.0150146484375 218.32400512695312,286.70599365234375 217.09300231933594,286.4880065917969 C221.9239959716797,285.4169921875 226.6719970703125,284.1390075683594 231.3249969482422,282.6659851074219 C233.2050018310547,284.7239990234375 239.21200561523438,290.6449890136719 247.45199584960938,292.2980041503906 C257.47100830078125,294.3089904785156 266.9859924316406,289.22900390625 266.9859924316406,289.22900390625 C266.9859924316406,289.22900390625 260.2510070800781,280.8900146484375 250.2310028076172,278.8800048828125 C247.70799255371094,278.3739929199219 245.2239990234375,278.3240051269531 242.91000366210938,278.52301025390625 C248.6020050048828,276.24200439453125 254.1219940185547,273.65399169921875 259.4580078125,270.7900085449219 C262.09698486328125,272.7900085449219 268.58599853515625,277.0459899902344 276.38800048828125,277.3710021972656 C286.6059875488281,277.7959899902344 295.1820068359375,271.2980041503906 295.1820068359375,271.2980041503906 C295.1820068359375,271.2980041503906 287.1919860839844,264.114990234375 276.9739990234375,263.6889953613281 C274.7130126953125,263.5950012207031 272.5369873046875,263.84600830078125 270.5140075683594,264.2860107421875 C275.9880065917969,260.7659912109375 281.2170104980469,256.9320068359375 286.1789855957031,252.8159942626953 C288.91400146484375,254.03900146484375 296.6239929199219,256.97601318359375 304.6650085449219,255.3470001220703 C314.6830139160156,253.3179931640625 321.4010009765625,244.96800231933594 321.4010009765625,244.96800231933594 C321.4010009765625,244.96800231933594 311.87701416015625,239.906005859375 301.8599853515625,241.93499755859375 C299.7690124511719,242.35899353027344 297.82598876953125,243.06100463867188 296.0559997558594,243.90199279785156 C300.78399658203125,239.25900268554688 305.20098876953125,234.33299255371094 309.2770080566406,229.1529998779297 C312.2959899902344,229.71400451660156 320.41400146484375,230.73399353027344 327.77099609375,227.322998046875 C337.02398681640625,223.03399658203125 341.5589904785156,213.36399841308594 341.5589904785156,213.36399841308594 C341.5589904785156,213.36399841308594 331.0929870605469,210.64599609375 321.8420104980469,214.93600463867188 C320.302001953125,215.64999389648438 318.9010009765625,216.51600646972656 317.6239929199219,217.45799255371094 C320.8039855957031,212.51699829101562 323.68701171875,207.38699340820312 326.2640075683594,202.0989990234375 C329.42999267578125,202.04200744628906 337.4630126953125,201.4029998779297 343.8970031738281,196.68699645996094 C352.0979919433594,190.6739959716797 354.5880126953125,180.30799865722656 354.5880126953125,180.30799865722656 C354.5880126953125,180.30799865722656 343.78399658203125,179.69400024414062 335.5820007324219,185.70700073242188 C334.1470031738281,186.75999450683594 332.9020080566406,187.94900512695312 331.79998779296875,189.19000244140625 C333.5719909667969,184.43800354003906 335.0989990234375,179.58099365234375 336.3689880371094,174.6280059814453 C339.3039855957031,174.13699340820312 347.40301513671875,172.30999755859375 353.1470031738281,166.4980010986328 C360.2760009765625,159.2830047607422 361.0690002441406,148.66099548339844 361.0690002441406,148.66099548339844 C361.0690002441406,148.66099548339844 350.3009948730469,149.73599243164062 343.1700134277344,156.9510040283203 C341.343994140625,158.7989959716797 339.9410095214844,160.8699951171875 338.85400390625,162.9290008544922 C339.92999267578125,156.55299377441406 340.58599853515625,150.0469970703125 340.7900085449219,143.43499755859375 C343.64801025390625,142.17799377441406 350.83099365234375,138.4810028076172 354.88299560546875,131.6179962158203 C360.02099609375,122.91699981689453 358.1700134277344,112.4219970703125 358.1700134277344,112.4219970703125 C358.1700134277344,112.4219970703125 347.989013671875,116.03800201416016 342.85198974609375,124.73999786376953 C341.8450012207031,126.44499969482422 341.1099853515625,128.21800231933594 340.5740051269531,129.96800231933594 C340.15899658203125,123.322998046875 339.29400634765625,116.79000091552734 337.99798583984375,110.4010009765625 C340.4960021972656,108.49500274658203 346.5369873046875,103.26699829101562 348.82598876953125,95.69499969482422 C351.739990234375,86.0479965209961 347.43499755859375,76.2770004272461 347.43499755859375,76.2770004272461 C347.43499755859375,76.2770004272461 338.4020080566406,82.14399719238281 335.48699951171875,91.79199981689453 C334.9649963378906,93.51799774169922 334.6820068359375,95.24500274658203 334.5570068359375,96.9219970703125 C333.0580139160156,92.03099822998047 331.3059997558594,87.24199676513672 329.31201171875,82.56700134277344 C331.3349914550781,80.0999984741211 335.9230041503906,73.7020034790039 336.3940124511719,65.88899993896484 C336.99700927734375,55.845001220703125 330.5419921875,47.29499816894531 330.5419921875,47.29499816894531 C330.5419921875,47.29499816894531 323.1059875488281,55.03499984741211 322.50201416015625,65.08100128173828 C322.42401123046875,66.36399841308594 322.4670104980469,67.61799621582031 322.5929870605469,68.83699798583984 C320.5169982910156,65.10199737548828 318.27801513671875,61.46200180053711 315.8909912109375,57.91899871826172 C317.52301025390625,55.082000732421875 320.9100036621094,48.13999938964844 320.1300048828125,40.470001220703125 C319.1099853515625,30.457000732421875 311.36199951171875,23.020000457763672 311.36199951171875,23.020000457763672 C311.36199951171875,23.020000457763672 305.2650146484375,31.820999145507812 306.28399658203125,41.83399963378906 C306.4389953613281,43.362998962402344 306.7550048828125,44.827999114990234 307.17401123046875,46.21799850463867 C303.4410095214844,41.680999755859375 299.4360046386719,37.35499954223633 295.1929931640625,33.24800109863281 C296.05999755859375,30.2450008392334 297.77099609375,22.5049991607666 295.06201171875,15.085000038146973 C291.6050109863281,5.611999988555908 282.2539978027344,0.25 282.2539978027344,0.25 C282.2539978027344,0.25 278.50799560546875,10.243000030517578 281.9670104980469,19.714000701904297z"></path><path fill="url(#__lottie_element_30)" fill-opacity="1" d="M0 0"></path><path stroke-linecap="butt" stroke-linejoin="miter" fill-opacity="0" stroke-miterlimit="4" stroke="rgb(0,0,0)" stroke-opacity="1" stroke-width="2" d="M0 0"></path></g></g><g mask="url(#__lottie_element_15)" style="display: block;"><g transform="matrix(0.699999988079071,0,0,0.699999988079071,11.300003051757812,20.70000457763672)" opacity="1"><path fill="url(#__lottie_element_21)" fill-opacity="1" d=" M281.9670104980469,19.714000701904297 C283.0780029296875,22.757999420166016 284.79901123046875,25.371000289916992 286.62200927734375,27.52400016784668 C284.2120056152344,26.0310001373291 281.35198974609375,24.698999404907227 278.1390075683594,24.01799964904785 C268.1400146484375,21.898000717163086 258.5690002441406,26.874000549316406 258.5690002441406,26.874000549316406 C258.5690002441406,26.874000549316406 265.21099853515625,35.28499984741211 275.2080078125,37.40399932861328 C283.09600830078125,39.07600021362305 290.6969909667969,36.3390007019043 293.56298828125,35.10599899291992 C297.3949890136719,38.82699966430664 301.0249938964844,42.733001708984375 304.4330139160156,46.81399917602539 C303.5119934082031,46.19200134277344 302.552001953125,45.60100173950195 301.5069885253906,45.09400177001953 C292.33099365234375,40.6510009765625 281.8210144042969,43.19200134277344 281.8210144042969,43.19200134277344 C281.8210144042969,43.19200134277344 286.18798828125,52.9379997253418 295.364013671875,57.38100051879883 C302.760986328125,60.9630012512207 311.02099609375,60.00600051879883 313.9490051269531,59.500999450683594 C316.3169860839844,63.0359992980957 318.5419921875,66.66600036621094 320.5950012207031,70.39299774169922 C319.59698486328125,69.38300323486328 318.49798583984375,68.41899871826172 317.26300048828125,67.55699920654297 C308.9159851074219,61.74100112915039 298.12799072265625,62.61199951171875 298.12799072265625,62.61199951171875 C298.12799072265625,62.61199951171875 300.875,72.91600036621094 309.2200012207031,78.73100280761719 C315.83099365234375,83.33899688720703 323.9679870605469,83.7490005493164 327.0669860839844,83.72000122070312 C328.60198974609375,87.33599853515625 329.989990234375,91.01899719238281 331.2250061035156,94.76799774169922 C330.7869873046875,94.17500305175781 330.3210144042969,93.59200286865234 329.81298828125,93.0270004272461 C323.0329895019531,85.49199676513672 312.3269958496094,83.9219970703125 312.3269958496094,83.9219970703125 C312.3269958496094,83.9219970703125 312.6130065917969,94.56999969482422 319.3940124511719,102.1050033569336 C324.7080078125,108.01100158691406 332.4309997558594,110.2509994506836 335.52301025390625,110.94499969482422 C336.52398681640625,115.89099884033203 337.2569885253906,120.92400360107422 337.7250061035156,126.02899932861328 C337.51300048828125,125.55999755859375 337.2900085449219,125.09200286865234 337.0400085449219,124.62899780273438 C332.25,115.73699951171875 322.2200012207031,111.73400115966797 322.2200012207031,111.73400115966797 C322.2200012207031,111.73400115966797 319.9549865722656,122.14900207519531 324.7439880371094,131.04100036621094 C328.4729919433594,137.96400451660156 335.37701416015625,141.9219970703125 338.2539978027344,143.33599853515625 C338.1340026855469,147.2530059814453 337.85198974609375,151.1320037841797 337.4159851074219,154.96800231933594 C334.7980041503906,145.4810028076172 326.364013671875,139.40699768066406 326.364013671875,139.40699768066406 C326.364013671875,139.40699768066406 321.5979919433594,148.968994140625 324.052001953125,158.74000549316406 C325.927001953125,166.20799255371094 331.4670104980469,171.62399291992188 333.9779968261719,173.76800537109375 C332.9440002441406,177.83599853515625 331.7349853515625,181.84100341796875 330.3550109863281,185.77200317382812 C330.37298583984375,184.97799682617188 330.35101318359375,184.1719970703125 330.2820129394531,183.3560028076172 C329.4320068359375,173.32699584960938 321.8080139160156,165.76600646972656 321.8080139160156,165.76600646972656 C321.8080139160156,165.76600646972656 315.56500244140625,174.46600341796875 316.4150085449219,184.4949951171875 C317.0849914550781,192.37600708007812 321.9200134277344,198.71299743652344 323.9679870605469,201.0749969482422 C321.74700927734375,205.63800048828125 319.2850036621094,210.07400512695312 316.6050109863281,214.37600708007812 C316.8280029296875,213.4759979248047 317.0090026855469,212.5489959716797 317.12298583984375,211.59500122070312 C318.3160095214844,201.60000610351562 312.37200927734375,192.697998046875 312.37200927734375,192.697998046875 C312.37200927734375,192.697998046875 304.4939880371094,200.0030059814453 303.302001953125,209.9969940185547 C302.37701416015625,217.7689971923828 305.7539978027344,224.85699462890625 307.3059997558594,227.63699340820312 C304.239990234375,231.5399932861328 300.97900390625,235.29800415039062 297.5329895019531,238.89599609375 C297.7239990234375,238.4709930419922 297.906005859375,238.04100036621094 298.0740051269531,237.5970001220703 C301.6210021972656,228.1580047607422 297.968994140625,218.13099670410156 297.968994140625,218.13099670410156 C297.968994140625,218.13099670410156 288.5679931640625,223.4080047607422 285.0220031738281,232.84800720214844 C282.28399658203125,240.13099670410156 283.83099365234375,247.75900268554688 284.6820068359375,250.86599731445312 C281.2720031738281,253.70199584960938 277.7330017089844,256.40301513671875 274.0719909667969,258.9580078125 C274.1679992675781,258.82598876953125 274.2760009765625,258.7099914550781 274.3689880371094,258.57501220703125 C280.13800048828125,250.26600646972656 279.0690002441406,239.66700744628906 279.0690002441406,239.66700744628906 C279.0690002441406,239.66700744628906 268.6470031738281,242.54200744628906 262.8789978027344,250.85299682617188 C258.1789855957031,257.62200927734375 258.01800537109375,265.90899658203125 258.1189880371094,268.7489929199219 C254.9219970703125,270.4630126953125 251.65499877929688,272.0780029296875 248.32400512695312,273.5820007324219 C248.375,273.52899169921875 248.4290008544922,273.4800109863281 248.4810028076172,273.427001953125 C255.51400756835938,266.1180114746094 256.16400146484375,255.48699951171875 256.16400146484375,255.48699951171875 C256.16400146484375,255.48699951171875 245.41000366210938,256.7019958496094 238.3769989013672,264.010986328125 C233.04600524902344,269.5509948730469 231.38400268554688,276.99700927734375 230.89199829101562,280.2770080566406 C226.02099609375,281.83099365234375 221.0449981689453,283.1679992675781 215.97500610351562,284.27398681640625 C217.29600524902344,283.5889892578125 218.60000610351562,282.77801513671875 219.83599853515625,281.80499267578125 C227.822998046875,275.51800537109375 229.9550018310547,265.0769958496094 229.9550018310547,265.0769958496094 C229.9550018310547,265.0769958496094 219.13299560546875,264.82501220703125 211.14599609375,271.1080017089844 C204.69400024414062,276.18701171875 202.06399536132812,283.97198486328125 201.29100036621094,286.77899169921875 C194.468994140625,287.63299560546875 187.51400756835938,288.08099365234375 180.44900512695312,288.08099365234375 C175.343994140625,288.08099365234375 170.2969970703125,287.8420104980469 165.31500244140625,287.3919982910156 C164.3260040283203,284.1319885253906 161.6269989013672,277.1440124511719 155.6750030517578,272.4620056152344 C147.68699645996094,266.177001953125 136.8679962158203,266.4309997558594 136.8679962158203,266.4309997558594 C136.8679962158203,266.4309997558594 138.9969940185547,276.87200927734375 146.98599243164062,283.1570129394531 C148.05999755859375,284.00201416015625 149.18600463867188,284.72198486328125 150.3280029296875,285.34600830078125 C144.10499572753906,284.20599365234375 138.01199340820312,282.72198486328125 132.07200622558594,280.9110107421875 C131.70799255371094,278.0639953613281 130.20599365234375,269.9429931640625 124.49600219726562,264.010986328125 C117.46399688720703,256.7019958496094 106.71099853515625,255.48699951171875 106.71099853515625,255.48699951171875 C106.71099853515625,255.48699951171875 107.36000061035156,266.1180114746094 114.39399719238281,273.427001953125 C115.01599884033203,274.072998046875 115.66899871826172,274.6669921875 116.33999633789062,275.22100830078125 C112.3759994506836,273.552001953125 108.4990005493164,271.7349853515625 104.71499633789062,269.77301025390625 C104.81700134277344,266.93701171875 104.65899658203125,258.6440124511719 99.95600128173828,251.87100219726562 C94.18699645996094,243.56199645996094 83.76599884033203,240.68600463867188 83.76599884033203,240.68600463867188 C83.76599884033203,240.68600463867188 82.69599914550781,251.28399658203125 88.46700286865234,259.5950012207031 C88.72100067138672,259.9630126953125 89.00599670410156,260.2950134277344 89.27799987792969,260.6419982910156 C85.12200164794922,257.85699462890625 81.11399841308594,254.88699340820312 77.26799774169922,251.7429962158203 C78.08699798583984,248.89199829101562 79.87100219726562,240.9499969482422 77.0270004272461,233.3820037841797 C73.4800033569336,223.9409942626953 64.0790023803711,218.66400146484375 64.0790023803711,218.66400146484375 C64.0790023803711,218.66400146484375 60.428001403808594,228.6909942626953 63.974998474121094,238.12899780273438 C64.31300354003906,239.02999877929688 64.70899963378906,239.88600158691406 65.14099884033203,240.70899963378906 C61.74599838256836,237.27999877929688 58.52199935913086,233.6999969482422 55.47800064086914,229.98199462890625 C56.909000396728516,227.5070037841797 60.66600036621094,220.0959930419922 59.694000244140625,211.9600067138672 C58.50199890136719,201.96499633789062 50.625,194.66099548339844 50.625,194.66099548339844 C50.625,194.66099548339844 44.68199920654297,203.56199645996094 45.87300109863281,213.5570068359375 C46.09199905395508,215.38900756835938 46.54100036621094,217.1230010986328 47.119998931884766,218.7449951171875 C43.45000076293945,213.29299926757812 40.14899826049805,207.6009979248047 37.24100112915039,201.70199584960938 C39.22200012207031,199.44200134277344 44.2239990234375,193.01400756835938 44.90399932861328,184.9949951171875 C45.75400161743164,174.96600341796875 39.51100158691406,166.26600646972656 39.51100158691406,166.26600646972656 C39.51100158691406,166.26600646972656 31.886999130249023,173.82699584960938 31.03700065612793,183.85499572753906 C30.944000244140625,184.947998046875 30.94099998474121,186.02099609375 31.000999450683594,187.0709991455078 C29.51300048828125,182.9600067138672 28.219999313354492,178.76699829101562 27.11199951171875,174.5050048828125 C29.496000289916992,172.51300048828125 35.332000732421875,166.9949951171875 37.266998291015625,159.28399658203125 C39.72100067138672,149.51499938964844 34.95500183105469,139.95199584960938 34.95500183105469,139.95199584960938 C34.95500183105469,139.95199584960938 26.21299934387207,146.2310028076172 23.757999420166016,156 C23.722000122070312,156.14700317382812 23.694000244140625,156.29200744628906 23.660999298095703,156.43800354003906 C23.114999771118164,152.03700256347656 22.763999938964844,147.57899475097656 22.635000228881836,143.07000732421875 C25.30299949645996,141.79600524902344 32.57500076293945,137.80599975585938 36.43899917602539,130.6320037841797 C41.22800064086914,121.74099731445312 38.9630012512207,111.32499694824219 38.9630012512207,111.32499694824219 C38.9630012512207,111.32499694824219 28.933000564575195,115.3270034790039 24.14299964904785,124.22000122070312 C23.768999099731445,124.91300201416016 23.44099998474121,125.61499786376953 23.14900016784668,126.3219985961914 C23.628000259399414,120.97599792480469 24.408000946044922,115.71199798583984 25.472000122070312,110.54000091552734 C28.599000930786133,109.83399963378906 36.263999938964844,107.58399963378906 41.54800033569336,101.71199798583984 C48.32699966430664,94.177001953125 48.612998962402344,83.52999877929688 48.612998962402344,83.52999877929688 C48.612998962402344,83.52999877929688 37.90599822998047,85.0999984741211 31.128000259399414,92.63600158691406 C30.676000595092773,93.13700103759766 30.260000228881836,93.65499877929688 29.864999771118164,94.18000030517578 C31.14299964904785,90.36100006103516 32.58000183105469,86.60700225830078 34.16899871826172,82.9260025024414 C37.26599884033203,82.95500183105469 45.40599822998047,82.54499816894531 52.01900100708008,77.93699645996094 C60.36399841308594,72.12100219726562 63.108001708984375,61.819000244140625 63.108001708984375,61.819000244140625 C63.108001708984375,61.819000244140625 52.321998596191406,60.94599914550781 43.974998474121094,66.76200103759766 C42.83399963378906,67.55799865722656 41.819000244140625,68.447998046875 40.880001068115234,69.37300109863281 C42.930999755859375,65.72100067138672 45.143001556396484,62.1619987487793 47.499000549316406,58.696998596191406 C51.01300048828125,59.19200134277344 58.41400146484375,59.667999267578125 65.11100006103516,56.42499923706055 C74.28700256347656,51.981998443603516 78.65399932861328,42.23699951171875 78.65399932861328,42.23699951171875 C78.65399932861328,42.23699951171875 68.14399719238281,39.69599914550781 58.965999603271484,44.138999938964844 C58.82699966430664,44.207000732421875 58.70199966430664,44.290000915527344 58.56399917602539,44.361000061035156 C61.41600036621094,41.09000015258789 64.40899658203125,37.93299865722656 67.54100036621094,34.90399932861328 C69.95700073242188,35.99599838256836 77.99600219726562,39.17599868774414 86.3550033569336,37.40399932861328 C96.35399627685547,35.28499984741211 102.99400329589844,26.874000549316406 102.99400329589844,26.874000549316406 C102.99400329589844,26.874000549316406 93.42400360107422,21.898000717163086 83.4260025024414,24.01799964904785 C80.21399688720703,24.698999404907227 77.35299682617188,26.0310001373291 74.94300079345703,27.523000717163086 C76.76599884033203,25.371000289916992 78.48699951171875,22.757999420166016 79.5979995727539,19.714000701904297 C83.05699920654297,10.243000030517578 79.31199645996094,0.25 79.31199645996094,0.25 C79.31199645996094,0.25 69.95999908447266,5.611999988555908 66.5009994506836,15.085000038146973 C63.930999755859375,22.124000549316406 65.33899688720703,29.448999404907227 66.23200225830078,32.74800109863281 C61.257999420166016,37.51599884033203 56.61199951171875,42.59000015258789 52.334999084472656,47.94300079345703 C53.22999954223633,45.80699920654297 53.930999755859375,43.430999755859375 54.191001892089844,40.87900161743164 C55.21099853515625,30.864999771118164 49.11399841308594,22.065000534057617 49.11399841308594,22.065000534057617 C49.11399841308594,22.065000534057617 41.362998962402344,29.5 40.345001220703125,39.513999938964844 C39.470001220703125,48.11600112915039 43.83599853515625,55.80500030517578 45.0880012512207,57.80699920654297 C42.7869987487793,61.21500015258789 40.62699890136719,64.71299743652344 38.6150016784668,68.29900360107422 C38.762001037597656,67.0009994506836 38.81800079345703,65.65899658203125 38.73500061035156,64.28700256347656 C38.13100051879883,54.23899841308594 30.695999145507812,46.5 30.695999145507812,46.5 C30.695999145507812,46.5 24.239999771118164,55.04999923706055 24.8439998626709,65.09600067138672 C25.315000534057617,72.91000366210938 29.906999588012695,79.31099700927734 31.929000854492188,81.7770004272461 C29.820999145507812,86.63800048828125 27.968000411987305,91.62200164794922 26.395999908447266,96.71900177001953 C26.27899932861328,94.98400115966797 25.993999481201172,93.19100189208984 25.45199966430664,91.4000015258789 C22.53700065612793,81.75299835205078 13.505999565124512,75.88500213623047 13.505999565124512,75.88500213623047 C13.505999565124512,75.88500213623047 9.197999954223633,85.65499877929688 12.11400032043457,95.3030014038086 C14.416000366210938,102.91799926757812 20.516000747680664,108.16500091552734 22.988000869750977,110.04299926757812 C21.7189998626709,116.20899963378906 20.847999572753906,122.50599670410156 20.399999618530273,128.91200256347656 C19.885000228881836,127.37300109863281 19.21500015258789,125.82599639892578 18.332000732421875,124.33100128173828 C13.192999839782715,115.62999725341797 3.0139999389648438,112.01399993896484 3.0139999389648438,112.01399993896484 C3.0139999389648438,112.01399993896484 1.1629999876022339,122.50800323486328 6.300000190734863,131.2100067138672 C10.21399974822998,137.83900451660156 17.052000045776367,141.51499938964844 20.08799934387207,142.88900756835938 C20.267000198364258,149.5800018310547 20.915000915527344,156.16099548339844 21.98900032043457,162.61099243164062 C20.975000381469727,160.84100341796875 19.7189998626709,159.0850067138672 18.14900016784668,157.49600219726562 C11.017999649047852,150.28199768066406 0.25,149.20599365234375 0.25,149.20599365234375 C0.25,149.20599365234375 1.0429999828338623,159.82699584960938 8.17300033569336,167.04400634765625 C13.734000205993652,172.6699981689453 21.506999969482422,174.56199645996094 24.658000946044922,175.1230010986328 C25.906999588012695,179.92100524902344 27.39699935913086,184.63099670410156 29.118000030517578,189.23899841308594 C28.115999221801758,188.16299438476562 26.99799919128418,187.13099670410156 25.73699951171875,186.20599365234375 C17.53700065612793,180.19200134277344 6.73199987411499,180.8090057373047 6.73199987411499,180.8090057373047 C6.73199987411499,180.8090057373047 9.222000122070312,191.1739959716797 17.422000885009766,197.18800354003906 C23.742000579833984,201.82000732421875 31.604000091552734,202.51800537109375 34.88100051879883,202.593994140625 C37.56999969482422,208.06199645996094 40.59400177001953,213.35499572753906 43.930999755859375,218.447998046875 C43.05400085449219,217.88800048828125 42.141998291015625,217.35499572753906 41.15599822998047,216.8979949951172 C31.90399932861328,212.60899353027344 21.43899917602539,215.3260040283203 21.43899917602539,215.3260040283203 C21.43899917602539,215.3260040283203 25.972999572753906,224.99600219726562 35.22600173950195,229.28500366210938 C42.23899841308594,232.53599548339844 49.94499969482422,231.76199340820312 53.26599884033203,231.1959991455078 C56.888999938964844,235.64300537109375 60.76300048828125,239.89599609375 64.875,243.9340057373047 C63.41299819946289,243.3159942626953 61.84700012207031,242.8040008544922 60.1870002746582,242.46800231933594 C50.16899871826172,240.43800354003906 40.64500045776367,245.50100708007812 40.64500045776367,245.50100708007812 C40.64500045776367,245.50100708007812 47.36399841308594,253.8509979248047 57.38199996948242,255.8800048828125 C65.12200164794922,257.4469909667969 72.5459976196289,254.78799438476562 75.53099822998047,253.4949951171875 C80.68499755859375,257.7139892578125 86.13300323486328,261.6210021972656 91.83000183105469,265.1990051269531 C89.9469985961914,264.82501220703125 87.93900299072266,264.62200927734375 85.86100006103516,264.7080078125 C75.64299774169922,265.1319885253906 67.6520004272461,272.3169860839844 67.6520004272461,272.3169860839844 C67.6520004272461,272.3169860839844 76.2300033569336,278.81298828125 86.4469985961914,278.3890075683594 C94.24600219726562,278.06500244140625 100.73400115966797,273.81298828125 103.3740005493164,271.81298828125 C108.0270004272461,274.2300109863281 112.81600189208984,276.43701171875 117.73400115966797,278.4169921875 C116.08200073242188,278.40399169921875 114.37200164794922,278.5329895019531 112.64299774169922,278.8800048828125 C102.62200164794922,280.8900146484375 95.88899993896484,289.22900390625 95.88899993896484,289.22900390625 C95.88899993896484,289.22900390625 105.4020004272461,294.3089904785156 115.4229965209961,292.2980041503906 C123.10399627685547,290.7569885253906 128.83999633789062,285.510009765625 131.10699462890625,283.13800048828125 C137.31100463867188,285.0360107421875 143.67999267578125,286.58599853515625 150.18699645996094,287.7640075683594 C148.8070068359375,287.9840087890625 147.4080047607422,288.31298828125 146.01600646972656,288.7959899902344 C136.3719940185547,292.14599609375 130.86900329589844,301.3169860839844 130.86900329589844,301.3169860839844 C130.86900329589844,301.3169860839844 141.0019989013672,305.0589904785156 150.64700317382812,301.7099914550781 C158.80499267578125,298.8760070800781 163.98500061035156,291.8970031738281 165.39100646972656,289.8080139160156 C170.35000610351562,290.2449951171875 175.37100219726562,290.4800109863281 180.44900512695312,290.4800109863281 C187.72000122070312,290.4800109863281 194.8769989013672,290.0119934082031 201.89599609375,289.12200927734375 C203.78700256347656,291.7590026855469 208.7449951171875,297.7770080566406 216.1739959716797,300.35699462890625 C225.8179931640625,303.70599365234375 235.95199584960938,299.9649963378906 235.95199584960938,299.9649963378906 C235.95199584960938,299.9649963378906 230.4510040283203,290.7929992675781 220.80599975585938,287.4440002441406 C219.56900024414062,287.0150146484375 218.32400512695312,286.70599365234375 217.09300231933594,286.4880065917969 C221.9239959716797,285.4169921875 226.6719970703125,284.1390075683594 231.3249969482422,282.6659851074219 C233.2050018310547,284.7239990234375 239.21200561523438,290.6449890136719 247.45199584960938,292.2980041503906 C257.47100830078125,294.3089904785156 266.9859924316406,289.22900390625 266.9859924316406,289.22900390625 C266.9859924316406,289.22900390625 260.2510070800781,280.8900146484375 250.2310028076172,278.8800048828125 C247.70799255371094,278.3739929199219 245.2239990234375,278.3240051269531 242.91000366210938,278.52301025390625 C248.6020050048828,276.24200439453125 254.1219940185547,273.65399169921875 259.4580078125,270.7900085449219 C262.09698486328125,272.7900085449219 268.58599853515625,277.0459899902344 276.38800048828125,277.3710021972656 C286.6059875488281,277.7959899902344 295.1820068359375,271.2980041503906 295.1820068359375,271.2980041503906 C295.1820068359375,271.2980041503906 287.1919860839844,264.114990234375 276.9739990234375,263.6889953613281 C274.7130126953125,263.5950012207031 272.5369873046875,263.84600830078125 270.5140075683594,264.2860107421875 C275.9880065917969,260.7659912109375 281.2170104980469,256.9320068359375 286.1789855957031,252.8159942626953 C288.91400146484375,254.03900146484375 296.6239929199219,256.97601318359375 304.6650085449219,255.3470001220703 C314.6830139160156,253.3179931640625 321.4010009765625,244.96800231933594 321.4010009765625,244.96800231933594 C321.4010009765625,244.96800231933594 311.87701416015625,239.906005859375 301.8599853515625,241.93499755859375 C299.7690124511719,242.35899353027344 297.82598876953125,243.06100463867188 296.0559997558594,243.90199279785156 C300.78399658203125,239.25900268554688 305.20098876953125,234.33299255371094 309.2770080566406,229.1529998779297 C312.2959899902344,229.71400451660156 320.41400146484375,230.73399353027344 327.77099609375,227.322998046875 C337.02398681640625,223.03399658203125 341.5589904785156,213.36399841308594 341.5589904785156,213.36399841308594 C341.5589904785156,213.36399841308594 331.0929870605469,210.64599609375 321.8420104980469,214.93600463867188 C320.302001953125,215.64999389648438 318.9010009765625,216.51600646972656 317.6239929199219,217.45799255371094 C320.8039855957031,212.51699829101562 323.68701171875,207.38699340820312 326.2640075683594,202.0989990234375 C329.42999267578125,202.04200744628906 337.4630126953125,201.4029998779297 343.8970031738281,196.68699645996094 C352.0979919433594,190.6739959716797 354.5880126953125,180.30799865722656 354.5880126953125,180.30799865722656 C354.5880126953125,180.30799865722656 343.78399658203125,179.69400024414062 335.5820007324219,185.70700073242188 C334.1470031738281,186.75999450683594 332.9020080566406,187.94900512695312 331.79998779296875,189.19000244140625 C333.5719909667969,184.43800354003906 335.0989990234375,179.58099365234375 336.3689880371094,174.6280059814453 C339.3039855957031,174.13699340820312 347.40301513671875,172.30999755859375 353.1470031738281,166.4980010986328 C360.2760009765625,159.2830047607422 361.0690002441406,148.66099548339844 361.0690002441406,148.66099548339844 C361.0690002441406,148.66099548339844 350.3009948730469,149.73599243164062 343.1700134277344,156.9510040283203 C341.343994140625,158.7989959716797 339.9410095214844,160.8699951171875 338.85400390625,162.9290008544922 C339.92999267578125,156.55299377441406 340.58599853515625,150.0469970703125 340.7900085449219,143.43499755859375 C343.64801025390625,142.17799377441406 350.83099365234375,138.4810028076172 354.88299560546875,131.6179962158203 C360.02099609375,122.91699981689453 358.1700134277344,112.4219970703125 358.1700134277344,112.4219970703125 C358.1700134277344,112.4219970703125 347.989013671875,116.03800201416016 342.85198974609375,124.73999786376953 C341.8450012207031,126.44499969482422 341.1099853515625,128.21800231933594 340.5740051269531,129.96800231933594 C340.15899658203125,123.322998046875 339.29400634765625,116.79000091552734 337.99798583984375,110.4010009765625 C340.4960021972656,108.49500274658203 346.5369873046875,103.26699829101562 348.82598876953125,95.69499969482422 C351.739990234375,86.0479965209961 347.43499755859375,76.2770004272461 347.43499755859375,76.2770004272461 C347.43499755859375,76.2770004272461 338.4020080566406,82.14399719238281 335.48699951171875,91.79199981689453 C334.9649963378906,93.51799774169922 334.6820068359375,95.24500274658203 334.5570068359375,96.9219970703125 C333.0580139160156,92.03099822998047 331.3059997558594,87.24199676513672 329.31201171875,82.56700134277344 C331.3349914550781,80.0999984741211 335.9230041503906,73.7020034790039 336.3940124511719,65.88899993896484 C336.99700927734375,55.845001220703125 330.5419921875,47.29499816894531 330.5419921875,47.29499816894531 C330.5419921875,47.29499816894531 323.1059875488281,55.03499984741211 322.50201416015625,65.08100128173828 C322.42401123046875,66.36399841308594 322.4670104980469,67.61799621582031 322.5929870605469,68.83699798583984 C320.5169982910156,65.10199737548828 318.27801513671875,61.46200180053711 315.8909912109375,57.91899871826172 C317.52301025390625,55.082000732421875 320.9100036621094,48.13999938964844 320.1300048828125,40.470001220703125 C319.1099853515625,30.457000732421875 311.36199951171875,23.020000457763672 311.36199951171875,23.020000457763672 C311.36199951171875,23.020000457763672 305.2650146484375,31.820999145507812 306.28399658203125,41.83399963378906 C306.4389953613281,43.362998962402344 306.7550048828125,44.827999114990234 307.17401123046875,46.21799850463867 C303.4410095214844,41.680999755859375 299.4360046386719,37.35499954223633 295.1929931640625,33.24800109863281 C296.05999755859375,30.2450008392334 297.77099609375,22.5049991607666 295.06201171875,15.085000038146973 C291.6050109863281,5.611999988555908 282.2539978027344,0.25 282.2539978027344,0.25 C282.2539978027344,0.25 278.50799560546875,10.243000030517578 281.9670104980469,19.714000701904297z"></path><path fill="url(#__lottie_element_22)" fill-opacity="1" d="M0 0"></path><path stroke-linecap="butt" stroke-linejoin="miter" fill-opacity="0" stroke-miterlimit="4" stroke="rgb(0,0,0)" stroke-opacity="1" stroke-width="2" d="M0 0"></path></g></g><g transform="matrix(0.7699999809265137,0,0,0.7699999809265137,109.89569091796875,187.04995727539062)" opacity="1" style="display: block;"><path fill="url(#__lottie_element_14)" fill-opacity="1" d=" M57.47700119018555,66.78700256347656 C57.47700119018555,66.78700256347656 36.93000030517578,58.54999923706055 36.93000030517578,58.54999923706055 C36.93000030517578,58.54999923706055 16.527000427246094,67.13400268554688 16.527000427246094,67.13400268554688 C16.527000427246094,67.13400268554688 18.01099967956543,45.04800033569336 18.01099967956543,45.04800033569336 C18.01099967956543,45.04800033569336 3.5429999828338623,28.295000076293945 3.5429999828338623,28.295000076293945 C3.5429999828338623,28.295000076293945 25.0049991607666,22.881000518798828 25.0049991607666,22.881000518798828 C25.0049991607666,22.881000518798828 36.46699905395508,3.944000005722046 36.46699905395508,3.944000005722046 C36.46699905395508,3.944000005722046 48.249000549316406,22.68400001525879 48.249000549316406,22.68400001525879 C48.249000549316406,22.68400001525879 69.80000305175781,27.732999801635742 69.80000305175781,27.732999801635742 C69.80000305175781,27.732999801635742 55.61899948120117,44.729000091552734 55.61899948120117,44.729000091552734 C55.61899948120117,44.729000091552734 57.47700119018555,66.78700256347656 57.47700119018555,66.78700256347656z"></path><path stroke-linecap="butt" stroke-linejoin="miter" fill-opacity="0" stroke-miterlimit="4" stroke="rgb(0,0,0)" stroke-opacity="1" stroke-width="2" d=" M57.47700119018555,66.78700256347656 C57.47700119018555,66.78700256347656 36.93000030517578,58.54999923706055 36.93000030517578,58.54999923706055 C36.93000030517578,58.54999923706055 16.527000427246094,67.13400268554688 16.527000427246094,67.13400268554688 C16.527000427246094,67.13400268554688 18.01099967956543,45.04800033569336 18.01099967956543,45.04800033569336 C18.01099967956543,45.04800033569336 3.5429999828338623,28.295000076293945 3.5429999828338623,28.295000076293945 C3.5429999828338623,28.295000076293945 25.0049991607666,22.881000518798828 25.0049991607666,22.881000518798828 C25.0049991607666,22.881000518798828 36.46699905395508,3.944000005722046 36.46699905395508,3.944000005722046 C36.46699905395508,3.944000005722046 48.249000549316406,22.68400001525879 48.249000549316406,22.68400001525879 C48.249000549316406,22.68400001525879 69.80000305175781,27.732999801635742 69.80000305175781,27.732999801635742 C69.80000305175781,27.732999801635742 55.61899948120117,44.729000091552734 55.61899948120117,44.729000091552734 C55.61899948120117,44.729000091552734 57.47700119018555,66.78700256347656 57.47700119018555,66.78700256347656z"></path></g></g></svg>