<?xml version="1.0" encoding="UTF-8"?>
<svg width="752pt" height="752pt" version="1.1" viewBox="0 0 752 752" xmlns="http://www.w3.org/2000/svg">
 <g fill="#fff">
  <path d="m376 0c-49.375 0-98.27 9.7266-143.89 28.621-45.621 18.895-87.07 46.59-121.98 81.508-34.918 34.914-62.613 76.363-81.508 121.98-18.895 45.617-28.621 94.512-28.621 143.89 0 99.723 39.617 195.36 110.13 265.87 70.516 70.516 166.15 110.13 265.87 110.13 99.723 0 195.36-39.617 265.87-110.13 70.512-70.512 110.13-166.15 110.13-265.87 0-99.719-39.613-195.36-110.12-265.87-70.516-70.516-166.15-110.13-265.88-110.13zm0 42.465c43.316 0 86.207 8.625 126.23 25.387 40.02 16.762 76.379 41.332 107.01 72.305s54.926 67.738 71.5 108.21c16.578 40.465 25.105 83.84 25.105 127.64 0 88.461-34.75 173.3-96.605 235.84-61.859 62.551-145.75 97.691-233.23 97.691-43.312 0-86.207-8.625-126.22-25.387-40.02-16.762-76.383-41.332-107.01-72.301-30.629-30.973-54.926-67.742-71.504-108.21-16.574-40.469-25.105-83.84-25.105-127.64s8.5312-87.172 25.105-127.64c16.578-40.469 40.871-77.238 71.5-108.21 30.629-30.969 66.992-55.539 107.01-72.301 40.02-16.762 82.914-25.387 126.23-25.387z"/>
  <path d="m373.59 531.21-5.8867-7.8008c-4.9766-6.5938-121.87-162.27-121.87-230.44 0-70.445 57.312-127.76 127.76-127.76 70.445 0 127.76 57.312 127.76 127.76 0 68.168-116.9 223.85-121.86 230.44zm0-351.25c-62.309 0-113.01 50.695-113.01 113.01 0 55.031 89.016 180.71 113.01 213.57 23.992-32.871 113-158.56 113-213.57 0.007812-62.312-50.688-113.01-113-113.01zm0 168.62c-30.664 0-55.613-24.945-55.613-55.609s24.953-55.613 55.613-55.613 55.602 24.949 55.602 55.613c0.003907 30.664-24.934 55.609-55.602 55.609zm0-96.469c-22.527 0-40.859 18.332-40.859 40.859s18.332 40.855 40.859 40.855 40.852-18.328 40.852-40.855c0-22.535-18.32-40.859-40.852-40.859z"/>
  <path d="m378.2 571.45c-58.68 0-102.71-18.828-104.67-44.762-1.8359-24.27 31.703-34.418 51.855-38.305l9.1797 12.273c-35.531 3.5195-47.262 20.07-46.922 24.672 0.82031 10.832 31.168 33.391 89.941 33.391 56.023 0 81.254-22.004 81.977-32.066 0.53125-7.3359-18.992-24.773-46.852-26.188l9.3828-12.305c48.504 8.9375 52.234 30.801 51.586 39.781-1.8516 25.617-41.109 43.508-95.48 43.508z"/>
 </g>
</svg>
