<svg xmlns="http://www.w3.org/2000/svg" viewBox="0 0 300 300" width="300" height="300" preserveAspectRatio="xMidYMid meet" style="width: 100%; height: 100%; transform: translate3d(0px, 0px, 0px);"><defs><clipPath id="__lottie_element_156"><rect width="300" height="300" x="0" y="0"></rect></clipPath></defs><g clip-path="url(#__lottie_element_156)"><g transform="matrix(4.400000095367432,0,0,4.400000095367432,70.79999542236328,35.599998474121094)" opacity="1" style="display: block;"><g opacity="1" transform="matrix(1,0,0,1,0,0)"><g opacity="1" transform="matrix(1,0,0,1,0,0)"><g opacity="1" transform="matrix(1,0,0,1,10.519000053405762,25.850000381469727)"><path fill="rgb(255,74,88)" fill-opacity="1" d=" M4.2210001945495605,-8.866999626159668 C4.2210001945495605,-8.866999626159668 -0.17100000381469727,-1.274999976158142 -0.17100000381469727,-1.274999976158142 C-0.17100000381469727,-1.274999976158142 -4.281000137329102,-8.390999794006348 -4.281000137329102,-8.390999794006348 C-4.281000137329102,-8.390999794006348 -4.291999816894531,-8.390999794006348 -4.291999816894531,-8.390999794006348 C-4.291999816894531,-8.390999794006348 -4.291999816894531,-8.39799976348877 -4.291999816894531,-8.39799976348877 C-4.291999816894531,-8.39799976348877 -4.302999973297119,-8.39799976348877 -4.302999973297119,-8.39799976348877 C-4.302999973297119,-8.39799976348877 -4.302999973297119,-8.406000137329102 -4.302999973297119,-8.406000137329102 C-4.302999973297119,-8.406000137329102 -4.302999973297119,-8.414999961853027 -4.302999973297119,-8.414999961853027 C-4.302999973297119,-8.414999961853027 -4.395999908447266,-8.414999961853027 -4.395999908447266,-8.414999961853027 C-4.395999908447266,-8.414999961853027 -4.395999908447266,-8.42300033569336 -4.395999908447266,-8.42300033569336 C-4.395999908447266,-8.42300033569336 -4.406000137329102,-8.42300033569336 -4.406000137329102,-8.42300033569336 C-4.406000137329102,-8.42300033569336 -4.406000137329102,-8.430000305175781 -4.406000137329102,-8.430000305175781 C-4.406000137329102,-8.430000305175781 -4.416999816894531,-8.430000305175781 -4.416999816894531,-8.430000305175781 C-4.416999816894531,-8.430000305175781 -4.416999816894531,-8.439000129699707 -4.416999816894531,-8.439000129699707 C-4.416999816894531,-8.439000129699707 -4.429999828338623,-8.439000129699707 -4.429999828338623,-8.439000129699707 C-4.429999828338623,-8.439000129699707 -4.429999828338623,-8.446999549865723 -4.429999828338623,-8.446999549865723 C-4.429999828338623,-8.446999549865723 -4.429999828338623,-8.456000328063965 -4.429999828338623,-8.456000328063965 C-4.429999828338623,-8.456000328063965 -4.458000183105469,-8.456000328063965 -4.458000183105469,-8.456000328063965 C-4.458000183105469,-8.456000328063965 -4.458000183105469,-8.461999893188477 -4.458000183105469,-8.461999893188477 C-4.458000183105469,-8.461999893188477 -4.468999862670898,-8.461999893188477 -4.468999862670898,-8.461999893188477 C-4.468999862670898,-8.461999893188477 -4.468999862670898,-8.470999717712402 -4.468999862670898,-8.470999717712402 C-4.468999862670898,-8.470999717712402 -4.480000019073486,-8.470999717712402 -4.480000019073486,-8.470999717712402 C-4.480000019073486,-8.470999717712402 -4.480000019073486,-8.479000091552734 -4.480000019073486,-8.479000091552734 C-4.480000019073486,-8.479000091552734 -4.492000102996826,-8.479000091552734 -4.492000102996826,-8.479000091552734 C-4.492000102996826,-8.479000091552734 -4.492000102996826,-8.486000061035156 -4.492000102996826,-8.486000061035156 C-4.492000102996826,-8.486000061035156 -4.492000102996826,-8.494999885559082 -4.492000102996826,-8.494999885559082 C-4.492000102996826,-8.494999885559082 -4.502999782562256,-8.494999885559082 -4.502999782562256,-8.494999885559082 C-4.502999782562256,-8.494999885559082 -4.502999782562256,-8.503000259399414 -4.502999782562256,-8.503000259399414 C-4.502999782562256,-8.503000259399414 -4.5329999923706055,-8.503000259399414 -4.5329999923706055,-8.503000259399414 C-4.5329999923706055,-8.503000259399414 -4.5329999923706055,-8.51200008392334 -4.5329999923706055,-8.51200008392334 C-4.5329999923706055,-8.51200008392334 -4.560999870300293,-8.51200008392334 -4.560999870300293,-8.51200008392334 C-4.560999870300293,-8.51200008392334 -4.560999870300293,-8.520000457763672 -4.560999870300293,-8.520000457763672 C-4.560999870300293,-8.520000457763672 -4.573999881744385,-8.520000457763672 -4.573999881744385,-8.520000457763672 C-4.573999881744385,-8.520000457763672 -4.573999881744385,-8.527000427246094 -4.573999881744385,-8.527000427246094 C-4.573999881744385,-8.527000427246094 -4.573999881744385,-8.53600025177002 -4.573999881744385,-8.53600025177002 C-4.573999881744385,-8.53600025177002 -4.6479997634887695,-8.53600025177002 -4.6479997634887695,-8.53600025177002 C-4.6479997634887695,-8.53600025177002 -4.6479997634887695,-8.541999816894531 -4.6479997634887695,-8.541999816894531 C-4.6479997634887695,-8.541999816894531 -4.676000118255615,-8.541999816894531 -4.676000118255615,-8.541999816894531 C-4.676000118255615,-8.541999816894531 -4.676000118255615,-8.550999641418457 -4.676000118255615,-8.550999641418457 C-4.676000118255615,-8.550999641418457 -4.688000202178955,-8.550999641418457 -4.688000202178955,-8.550999641418457 C-4.688000202178955,-8.550999641418457 -4.688000202178955,-8.559000015258789 -4.688000202178955,-8.559000015258789 C-4.688000202178955,-8.559000015258789 -4.698999881744385,-8.559000015258789 -4.698999881744385,-8.559000015258789 C-4.698999881744385,-8.559000015258789 -4.698999881744385,-8.565999984741211 -4.698999881744385,-8.565999984741211 C-4.698999881744385,-8.565999984741211 -4.698999881744385,-8.574000358581543 -4.698999881744385,-8.574000358581543 C-4.698999881744385,-8.574000358581543 -4.711999893188477,-8.574000358581543 -4.711999893188477,-8.574000358581543 C-4.711999893188477,-8.574000358581543 -4.711999893188477,-8.583000183105469 -4.711999893188477,-8.583000183105469 C-4.711999893188477,-8.583000183105469 -4.7210001945495605,-8.583000183105469 -4.7210001945495605,-8.583000183105469 C-4.7210001945495605,-8.583000183105469 -4.7210001945495605,-8.592000007629395 -4.7210001945495605,-8.592000007629395 C-4.7210001945495605,-8.592000007629395 -4.749000072479248,-8.592000007629395 -4.749000072479248,-8.592000007629395 C-4.749000072479248,-8.592000007629395 -4.749000072479248,-8.600000381469727 -4.749000072479248,-8.600000381469727 C-4.749000072479248,-8.600000381469727 -4.760000228881836,-8.600000381469727 -4.760000228881836,-8.600000381469727 C-4.760000228881836,-8.600000381469727 -4.760000228881836,-8.607000350952148 -4.760000228881836,-8.607000350952148 C-4.760000228881836,-8.607000350952148 -4.760000228881836,-8.614999771118164 -4.760000228881836,-8.614999771118164 C-4.760000228881836,-8.614999771118164 -4.770999908447266,-8.614999771118164 -4.770999908447266,-8.614999771118164 C-4.770999908447266,-8.614999771118164 -4.770999908447266,-8.621999740600586 -4.770999908447266,-8.621999740600586 C-4.770999908447266,-8.621999740600586 -4.7829999923706055,-8.621999740600586 -4.7829999923706055,-8.621999740600586 C-4.7829999923706055,-8.621999740600586 -4.7829999923706055,-8.630999565124512 -4.7829999923706055,-8.630999565124512 C-4.7829999923706055,-8.630999565124512 -4.840000152587891,-8.630999565124512 -4.840000152587891,-8.630999565124512 C-4.840000152587891,-8.630999565124512 -4.840000152587891,-8.638999938964844 -4.840000152587891,-8.638999938964844 C-4.840000152587891,-8.638999938964844 -4.8520002365112305,-8.638999938964844 -4.8520002365112305,-8.638999938964844 C-4.8520002365112305,-8.638999938964844 -4.8520002365112305,-8.645999908447266 -4.8520002365112305,-8.645999908447266 C-4.8520002365112305,-8.645999908447266 -4.8520002365112305,-8.654000282287598 -4.8520002365112305,-8.654000282287598 C-4.8520002365112305,-8.654000282287598 -4.864999771118164,-8.654000282287598 -4.864999771118164,-8.654000282287598 C-4.864999771118164,-8.654000282287598 -4.864999771118164,-8.663000106811523 -4.864999771118164,-8.663000106811523 C-4.864999771118164,-8.663000106811523 -4.874000072479248,-8.663000106811523 -4.874000072479248,-8.663000106811523 C-4.874000072479248,-8.663000106811523 -4.874000072479248,-8.670999526977539 -4.874000072479248,-8.670999526977539 C-4.874000072479248,-8.670999526977539 -4.9019999504089355,-8.670999526977539 -4.9019999504089355,-8.670999526977539 C-4.9019999504089355,-8.670999526977539 -4.9019999504089355,-8.680000305175781 -4.9019999504089355,-8.680000305175781 C-4.9019999504089355,-8.680000305175781 -4.979000091552734,-8.680000305175781 -4.979000091552734,-8.680000305175781 C-4.979000091552734,-8.680000305175781 -4.979000091552734,-8.687000274658203 -4.979000091552734,-8.687000274658203 C-4.979000091552734,-8.687000274658203 -4.989999771118164,-8.687000274658203 -4.989999771118164,-8.687000274658203 C-4.989999771118164,-8.687000274658203 -4.989999771118164,-8.694999694824219 -4.989999771118164,-8.694999694824219 C-4.989999771118164,-8.694999694824219 -4.989999771118164,-8.70199966430664 -4.989999771118164,-8.70199966430664 C-4.989999771118164,-8.70199966430664 -5.000999927520752,-8.70199966430664 -5.000999927520752,-8.70199966430664 C-5.000999927520752,-8.70199966430664 -5.000999927520752,-8.710000038146973 -5.000999927520752,-8.710000038146973 C-5.000999927520752,-8.710000038146973 -5.01200008392334,-8.710000038146973 -5.01200008392334,-8.710000038146973 C-5.01200008392334,-8.710000038146973 -5.01200008392334,-8.718999862670898 -5.01200008392334,-8.718999862670898 C-5.01200008392334,-8.718999862670898 -5.039999961853027,-8.718999862670898 -5.039999961853027,-8.718999862670898 C-5.039999961853027,-8.718999862670898 -5.039999961853027,-8.72700023651123 -5.039999961853027,-8.72700023651123 C-5.039999961853027,-8.72700023651123 -5.039999961853027,-8.734000205993652 -5.039999961853027,-8.734000205993652 C-5.039999961853027,-8.734000205993652 -5.052999973297119,-8.734000205993652 -5.052999973297119,-8.734000205993652 C-5.052999973297119,-8.734000205993652 -5.052999973297119,-8.743000030517578 -5.052999973297119,-8.743000030517578 C-5.052999973297119,-8.743000030517578 -5.064000129699707,-8.743000030517578 -5.064000129699707,-8.743000030517578 C-5.064000129699707,-8.743000030517578 -5.064000129699707,-8.75100040435791 -5.064000129699707,-8.75100040435791 C-5.064000129699707,-8.75100040435791 -5.073999881744385,-8.75100040435791 -5.073999881744385,-8.75100040435791 C-5.073999881744385,-8.75100040435791 -5.073999881744385,-8.760000228881836 -5.073999881744385,-8.760000228881836 C-5.073999881744385,-8.760000228881836 -5.1020002365112305,-8.760000228881836 -5.1020002365112305,-8.760000228881836 C-5.1020002365112305,-8.760000228881836 -5.1020002365112305,-8.765999794006348 -5.1020002365112305,-8.765999794006348 C-5.1020002365112305,-8.765999794006348 -5.1020002365112305,-8.779000282287598 -5.1020002365112305,-8.779000282287598 C-5.1020002365112305,-8.779000282287598 -5.122000217437744,-8.779000282287598 -5.122000217437744,-8.779000282287598 C-5.122000217437744,-8.779000282287598 -5.122000217437744,-8.78600025177002 -5.122000217437744,-8.78600025177002 C-5.122000217437744,-8.78600025177002 -5.184000015258789,-8.78600025177002 -5.184000015258789,-8.78600025177002 C-5.184000015258789,-8.78600025177002 -5.184000015258789,-8.793999671936035 -5.184000015258789,-8.793999671936035 C-5.184000015258789,-8.793999671936035 -5.195000171661377,-8.793999671936035 -5.195000171661377,-8.793999671936035 C-5.195000171661377,-8.793999671936035 -5.195000171661377,-8.803000450134277 -5.195000171661377,-8.803000450134277 C-5.195000171661377,-8.803000450134277 -5.205999851226807,-8.803000450134277 -5.205999851226807,-8.803000450134277 C-5.205999851226807,-8.803000450134277 -5.205999851226807,-8.810999870300293 -5.205999851226807,-8.810999870300293 C-5.205999851226807,-8.810999870300293 -5.2270002365112305,-8.810999870300293 -5.2270002365112305,-8.810999870300293 C-5.2270002365112305,-8.810999870300293 -5.2270002365112305,-8.817999839782715 -5.2270002365112305,-8.817999839782715 C-5.2270002365112305,-8.817999839782715 -5.23799991607666,-8.817999839782715 -5.23799991607666,-8.817999839782715 C-5.23799991607666,-8.817999839782715 -5.23799991607666,-8.82699966430664 -5.23799991607666,-8.82699966430664 C-5.23799991607666,-8.82699966430664 -5.249000072479248,-8.82699966430664 -5.249000072479248,-8.82699966430664 C-5.249000072479248,-8.82699966430664 -5.249000072479248,-8.835000038146973 -5.249000072479248,-8.835000038146973 C-5.249000072479248,-8.835000038146973 -5.260000228881836,-8.835000038146973 -5.260000228881836,-8.835000038146973 C-5.260000228881836,-8.835000038146973 -5.260000228881836,-8.843999862670898 -5.260000228881836,-8.843999862670898 C-5.260000228881836,-8.843999862670898 -5.270999908447266,-8.843999862670898 -5.270999908447266,-8.843999862670898 C-5.270999908447266,-8.843999862670898 -5.270999908447266,-8.85200023651123 -5.270999908447266,-8.85200023651123 C-5.270999908447266,-8.85200023651123 -5.291999816894531,-8.85200023651123 -5.291999816894531,-8.85200023651123 C-5.291999816894531,-8.85200023651123 -5.291999816894531,-8.859000205993652 -5.291999816894531,-8.859000205993652 C-5.291999816894531,-8.859000205993652 -5.302999973297119,-8.859000205993652 -5.302999973297119,-8.859000205993652 C-5.302999973297119,-8.859000205993652 -5.302999973297119,-8.866999626159668 -5.302999973297119,-8.866999626159668 C-5.302999973297119,-8.866999626159668 -10.503000259399414,-8.866999626159668 -10.503000259399414,-8.866999626159668 C-10.503000259399414,-8.866999626159668 -0.5400000214576721,8.388999938964844 -0.5400000214576721,8.388999938964844 C-0.5400000214576721,8.388999938964844 -0.5360000133514404,8.378999710083008 -0.5360000133514404,8.378999710083008 C-0.5360000133514404,8.378999710083008 -0.5249999761581421,8.39799976348877 -0.5249999761581421,8.39799976348877 C-0.5249999761581421,8.39799976348877 -0.5180000066757202,8.383000373840332 -0.5180000066757202,8.383000373840332 C-0.5180000066757202,8.383000373840332 -0.5080000162124634,8.39799976348877 -0.5080000162124634,8.39799976348877 C-0.5080000162124634,8.39799976348877 -0.503000020980835,8.38700008392334 -0.503000020980835,8.38700008392334 C-0.503000020980835,8.38700008392334 -0.4819999933242798,8.39799976348877 -0.4819999933242798,8.39799976348877 C-0.4819999933242798,8.39799976348877 -0.47699999809265137,8.409000396728516 -0.47699999809265137,8.409000396728516 C-0.47699999809265137,8.409000396728516 -0.47099998593330383,8.399999618530273 -0.47099998593330383,8.399999618530273 C-0.47099998593330383,8.399999618530273 -0.46000000834465027,8.416999816894531 -0.46000000834465027,8.416999816894531 C-0.46000000834465027,8.416999816894531 -0.45399999618530273,8.407999992370605 -0.45399999618530273,8.407999992370605 C-0.45399999618530273,8.407999992370605 -0.4449999928474426,8.425999641418457 -0.4449999928474426,8.425999641418457 C-0.4449999928474426,8.425999641418457 -0.4390000104904175,8.414999961853027 -0.4390000104904175,8.414999961853027 C-0.4390000104904175,8.414999961853027 -0.42800000309944153,8.434000015258789 -0.42800000309944153,8.434000015258789 C-0.42800000309944153,8.434000015258789 -0.4230000078678131,8.423999786376953 -0.4230000078678131,8.423999786376953 C-0.4230000078678131,8.423999786376953 -0.4129999876022339,8.440999984741211 -0.4129999876022339,8.440999984741211 C-0.4129999876022339,8.440999984741211 -0.40400001406669617,8.428000450134277 -0.40400001406669617,8.428000450134277 C-0.40400001406669617,8.428000450134277 -0.3959999978542328,8.440999984741211 -0.3959999978542328,8.440999984741211 C-0.3959999978542328,8.440999984741211 -0.39100000262260437,8.45199966430664 -0.39100000262260437,8.45199966430664 C-0.39100000262260437,8.45199966430664 -0.38499999046325684,8.442999839782715 -0.38499999046325684,8.442999839782715 C-0.38499999046325684,8.442999839782715 -0.37400001287460327,8.460000038146973 -0.37400001287460327,8.460000038146973 C-0.37400001287460327,8.460000038146973 -0.36800000071525574,8.451000213623047 -0.36800000071525574,8.451000213623047 C-0.36800000071525574,8.451000213623047 -0.35899999737739563,8.468999862670898 -0.35899999737739563,8.468999862670898 C-0.35899999737739563,8.468999862670898 -0.35199999809265137,8.458000183105469 -0.35199999809265137,8.458000183105469 C-0.35199999809265137,8.458000183105469 -0.3440000116825104,8.47700023651123 -0.3440000116825104,8.47700023651123 C-0.3440000116825104,8.47700023651123 -0.3370000123977661,8.467000007629395 -0.3370000123977661,8.467000007629395 C-0.3370000123977661,8.467000007629395 -0.3269999921321869,8.484000205993652 -0.3269999921321869,8.484000205993652 C-0.3269999921321869,8.484000205993652 -0.3179999887943268,8.470999717712402 -0.3179999887943268,8.470999717712402 C-0.3179999887943268,8.470999717712402 -0.3109999895095825,8.484000205993652 -0.3109999895095825,8.484000205993652 C-0.3109999895095825,8.484000205993652 -0.3050000071525574,8.494999885559082 -0.3050000071525574,8.494999885559082 C-0.3050000071525574,8.494999885559082 -0.29899999499320984,8.486000061035156 -0.29899999499320984,8.486000061035156 C-0.29899999499320984,8.486000061035156 -0.2879999876022339,8.503000259399414 -0.2879999876022339,8.503000259399414 C-0.2879999876022339,8.503000259399414 -0.28299999237060547,8.493000030517578 -0.28299999237060547,8.493000030517578 C-0.28299999237060547,8.493000030517578 -0.27300000190734863,8.51200008392334 -0.27300000190734863,8.51200008392334 C-0.27300000190734863,8.51200008392334 -0.26600000262260437,8.50100040435791 -0.26600000262260437,8.50100040435791 C-0.26600000262260437,8.50100040435791 -0.25699999928474426,8.520000457763672 -0.25699999928474426,8.520000457763672 C-0.25699999928474426,8.520000457763672 -0.25099998712539673,8.510000228881836 -0.25099998712539673,8.510000228881836 C-0.25099998712539673,8.510000228881836 -0.23999999463558197,8.527000427246094 -0.23999999463558197,8.527000427246094 C-0.23999999463558197,8.527000427246094 -0.23399999737739563,8.515999794006348 -0.23399999737739563,8.515999794006348 C-0.23399999737739563,8.515999794006348 -0.22499999403953552,8.53600025177002 -0.22499999403953552,8.53600025177002 C-0.22499999403953552,8.53600025177002 -0.21899999678134918,8.524999618530273 -0.21899999678134918,8.524999618530273 C-0.21899999678134918,8.524999618530273 -0.20800000429153442,8.543999671936035 -0.20800000429153442,8.543999671936035 C-0.20800000429153442,8.543999671936035 -0.20200000703334808,8.534000396728516 -0.20200000703334808,8.534000396728516 C-0.20200000703334808,8.534000396728516 -0.15199999511241913,8.53600025177002 -0.15199999511241913,8.53600025177002 C-0.15199999511241913,8.53600025177002 -0.1459999978542328,8.527000427246094 -0.1459999978542328,8.527000427246094 C-0.1459999978542328,8.527000427246094 -0.13699999451637268,8.543999671936035 -0.13699999451637268,8.543999671936035 C-0.13699999451637268,8.543999671936035 -0.12999999523162842,8.53499984741211 -0.12999999523162842,8.53499984741211 C-0.12999999523162842,8.53499984741211 -0.11999999731779099,8.553000450134277 -0.11999999731779099,8.553000450134277 C-0.11999999731779099,8.553000450134277 -0.11500000208616257,8.541999816894531 -0.11500000208616257,8.541999816894531 C-0.11500000208616257,8.541999816894531 -0.10499999672174454,8.560999870300293 -0.10499999672174454,8.560999870300293 C-0.10499999672174454,8.560999870300293 -0.09799999743700027,8.550999641418457 -0.09799999743700027,8.550999641418457 C-0.09799999743700027,8.550999641418457 -0.08900000154972076,8.567999839782715 -0.08900000154972076,8.567999839782715 C-0.08900000154972076,8.567999839782715 -0.08299999684095383,8.559000015258789 -0.08299999684095383,8.559000015258789 C-0.08299999684095383,8.559000015258789 -0.07400000095367432,8.57699966430664 -0.07400000095367432,8.57699966430664 C-0.07400000095367432,8.57699966430664 -0.06599999964237213,8.565999984741211 -0.06599999964237213,8.565999984741211 C-0.06599999964237213,8.565999984741211 -0.05700000002980232,8.583000183105469 -0.05700000002980232,8.583000183105469 C-0.05700000002980232,8.583000183105469 -0.050999999046325684,8.574000358581543 -0.050999999046325684,8.574000358581543 C-0.050999999046325684,8.574000358581543 -0.03999999910593033,8.592000007629395 -0.03999999910593033,8.592000007629395 C-0.03999999910593033,8.592000007629395 -0.03500000014901161,8.581000328063965 -0.03500000014901161,8.581000328063965 C-0.03500000014901161,8.581000328063965 -0.02500000037252903,8.600000381469727 -0.02500000037252903,8.600000381469727 C-0.02500000037252903,8.600000381469727 -0.017999999225139618,8.59000015258789 -0.017999999225139618,8.59000015258789 C-0.017999999225139618,8.59000015258789 -0.00800000037997961,8.607000350952148 -0.00800000037997961,8.607000350952148 C-0.00800000037997961,8.607000350952148 -0.003000000026077032,8.597999572753906 -0.003000000026077032,8.597999572753906 C-0.003000000026077032,8.597999572753906 0.007000000216066837,8.616000175476074 0.007000000216066837,8.616000175476074 C0.007000000216066837,8.616000175476074 0.014000000432133675,8.607000350952148 0.014000000432133675,8.607000350952148 C0.014000000432133675,8.607000350952148 0.023000000044703484,8.62399959564209 0.023000000044703484,8.62399959564209 C0.023000000044703484,8.62399959564209 0.028999999165534973,8.614999771118164 0.028999999165534973,8.614999771118164 C0.028999999165534973,8.614999771118164 0.03999999910593033,8.633000373840332 0.03999999910593033,8.633000373840332 C0.03999999910593033,8.633000373840332 0.04600000008940697,8.621999740600586 0.04600000008940697,8.621999740600586 C0.04600000008940697,8.621999740600586 0.054999999701976776,8.640999794006348 0.054999999701976776,8.640999794006348 C0.054999999701976776,8.640999794006348 0.06199999898672104,8.652000427246094 0.06199999898672104,8.652000427246094 C0.06199999898672104,8.652000427246094 0.06800000369548798,8.63700008392334 0.06800000369548798,8.63700008392334 C0.06800000369548798,8.63700008392334 0.07699999958276749,8.652000427246094 0.07699999958276749,8.652000427246094 C0.07699999958276749,8.652000427246094 0.08299999684095383,8.640999794006348 0.08299999684095383,8.640999794006348 C0.08299999684095383,8.640999794006348 0.09399999678134918,8.65999984741211 0.09399999678134918,8.65999984741211 C0.09399999678134918,8.65999984741211 0.10000000149011612,8.649999618530273 0.10000000149011612,8.649999618530273 C0.10000000149011612,8.649999618530273 0.10899999737739563,8.666999816894531 0.10899999737739563,8.666999816894531 C0.10899999737739563,8.666999816894531 0.11500000208616257,8.657999992370605 0.11500000208616257,8.657999992370605 C0.11500000208616257,8.657999992370605 0.12600000202655792,8.675999641418457 0.12600000202655792,8.675999641418457 C0.12600000202655792,8.675999641418457 0.13199999928474426,8.664999961853027 0.13199999928474426,8.664999961853027 C0.13199999928474426,8.664999961853027 0.14100000262260437,8.684000015258789 0.14100000262260437,8.684000015258789 C0.14100000262260437,8.684000015258789 0.14800000190734863,8.694999694824219 0.14800000190734863,8.694999694824219 C0.14800000190734863,8.694999694824219 0.15600000321865082,8.680000305175781 0.15600000321865082,8.680000305175781 C0.15600000321865082,8.680000305175781 0.16300000250339508,8.694999694824219 0.16300000250339508,8.694999694824219 C0.16300000250339508,8.694999694824219 0.16899999976158142,8.6850004196167 0.16899999976158142,8.6850004196167 C0.16899999976158142,8.6850004196167 0.18000000715255737,8.70199966430664 0.18000000715255737,8.70199966430664 C0.18000000715255737,8.70199966430664 0.1860000044107437,8.692999839782715 0.1860000044107437,8.692999839782715 C0.1860000044107437,8.692999839782715 0.19499999284744263,8.710000038146973 0.19499999284744263,8.710000038146973 C0.19499999284744263,8.710000038146973 0.20200000703334808,8.699999809265137 0.20200000703334808,8.699999809265137 C0.20200000703334808,8.699999809265137 0.21199999749660492,8.718999862670898 0.21199999749660492,8.718999862670898 C0.21199999749660492,8.718999862670898 0.21699999272823334,8.708000183105469 0.21699999272823334,8.708000183105469 C0.21699999272823334,8.708000183105469 0.22699999809265137,8.72700023651123 0.22699999809265137,8.72700023651123 C0.22699999809265137,8.72700023651123 0.23399999737739563,8.73799991607666 0.23399999737739563,8.73799991607666 C0.23399999737739563,8.73799991607666 0.23999999463558197,8.727999687194824 0.23999999463558197,8.727999687194824 C0.23999999463558197,8.727999687194824 0.24899999797344208,8.744999885559082 0.24899999797344208,8.744999885559082 C0.24899999797344208,8.744999885559082 0.25699999928474426,8.732000350952148 0.25699999928474426,8.732000350952148 C0.25699999928474426,8.732000350952148 0.26600000262260437,8.744999885559082 0.26600000262260437,8.744999885559082 C0.26600000262260437,8.744999885559082 0.2709999978542328,8.734000205993652 0.2709999978542328,8.734000205993652 C0.2709999978542328,8.734000205993652 0.2809999883174896,8.753000259399414 0.2809999883174896,8.753000259399414 C0.2809999883174896,8.753000259399414 0.2879999876022339,8.743000030517578 0.2879999876022339,8.743000030517578 C0.2879999876022339,8.743000030517578 0.2980000078678131,8.76200008392334 0.2980000078678131,8.76200008392334 C0.2980000078678131,8.76200008392334 0.30300000309944153,8.75100040435791 0.30300000309944153,8.75100040435791 C0.30300000309944153,8.75100040435791 0.3140000104904175,8.769000053405762 0.3140000104904175,8.769000053405762 C0.3140000104904175,8.769000053405762 0.3199999928474426,8.779000282287598 0.3199999928474426,8.779000282287598 C0.3199999928474426,8.779000282287598 0.32600000500679016,8.770000457763672 0.32600000500679016,8.770000457763672 C0.32600000500679016,8.770000457763672 0.33500000834465027,8.788000106811523 0.33500000834465027,8.788000106811523 C0.33500000834465027,8.788000106811523 0.3440000116825104,8.774999618530273 0.3440000116825104,8.774999618530273 C0.3440000116825104,8.774999618530273 0.35199999809265137,8.788000106811523 0.35199999809265137,8.788000106811523 C0.35199999809265137,8.788000106811523 0.3569999933242798,8.779000282287598 0.3569999933242798,8.779000282287598 C0.3569999933242798,8.779000282287598 0.36800000071525574,8.79699993133545 0.36800000071525574,8.79699993133545 C0.36800000071525574,8.79699993133545 0.37400001287460327,8.78600025177002 0.37400001287460327,8.78600025177002 C0.37400001287460327,8.78600025177002 0.382999986410141,8.805000305175781 0.382999986410141,8.805000305175781 C0.382999986410141,8.805000305175781 0.3889999985694885,8.793999671936035 0.3889999985694885,8.793999671936035 C0.3889999985694885,8.793999671936035 0.4000000059604645,8.812000274658203 0.4000000059604645,8.812000274658203 C0.4000000059604645,8.812000274658203 0.4059999883174896,8.821999549865723 0.4059999883174896,8.821999549865723 C0.4059999883174896,8.821999549865723 0.41100001335144043,8.814000129699707 0.41100001335144043,8.814000129699707 C0.41100001335144043,8.814000129699707 0.42100000381469727,8.831000328063965 0.42100000381469727,8.831000328063965 C0.42100000381469727,8.831000328063965 0.42800000309944153,8.821999549865723 0.42800000309944153,8.821999549865723 C0.42800000309944153,8.821999549865723 0.4359999895095825,8.84000015258789 0.4359999895095825,8.84000015258789 C0.4359999895095825,8.84000015258789 0.4449999928474426,8.824999809265137 0.4449999928474426,8.824999809265137 C0.4449999928474426,8.824999809265137 0.45399999618530273,8.84000015258789 0.45399999618530273,8.84000015258789 C0.45399999618530273,8.84000015258789 0.46000000834465027,8.829000473022461 0.46000000834465027,8.829000473022461 C0.46000000834465027,8.829000473022461 0.4690000116825104,8.847999572753906 0.4690000116825104,8.847999572753906 C0.4690000116825104,8.847999572753906 0.4749999940395355,8.859000205993652 0.4749999940395355,8.859000205993652 C0.4749999940395355,8.859000205993652 0.4819999933242798,8.847999572753906 0.4819999933242798,8.847999572753906 C0.4819999933242798,8.847999572753906 0.492000013589859,8.866999626159668 0.492000013589859,8.866999626159668 C0.492000013589859,8.866999626159668 8.741000175476074,-5.35699987411499 8.741000175476074,-5.35699987411499 C8.741000175476074,-5.35699987411499 10.503000259399414,-8.395000457763672 10.503000259399414,-8.395000457763672 C10.503000259399414,-8.395000457763672 10.479999542236328,-8.395000457763672 10.479999542236328,-8.395000457763672 C10.479999542236328,-8.395000457763672 10.479999542236328,-8.402000427246094 10.479999542236328,-8.402000427246094 C10.479999542236328,-8.402000427246094 10.460000038146973,-8.402000427246094 10.460000038146973,-8.402000427246094 C10.460000038146973,-8.402000427246094 10.460000038146973,-8.41100025177002 10.460000038146973,-8.41100025177002 C10.460000038146973,-8.41100025177002 10.439000129699707,-8.41100025177002 10.439000129699707,-8.41100025177002 C10.439000129699707,-8.41100025177002 10.439000129699707,-8.418999671936035 10.439000129699707,-8.418999671936035 C10.439000129699707,-8.418999671936035 10.40999984741211,-8.418999671936035 10.40999984741211,-8.418999671936035 C10.40999984741211,-8.418999671936035 10.40999984741211,-8.428000450134277 10.40999984741211,-8.428000450134277 C10.40999984741211,-8.428000450134277 10.388999938964844,-8.428000450134277 10.388999938964844,-8.428000450134277 C10.388999938964844,-8.428000450134277 10.388999938964844,-8.434000015258789 10.388999938964844,-8.434000015258789 C10.388999938964844,-8.434000015258789 10.366999626159668,-8.434000015258789 10.366999626159668,-8.434000015258789 C10.366999626159668,-8.434000015258789 10.366999626159668,-8.442999839782715 10.366999626159668,-8.442999839782715 C10.366999626159668,-8.442999839782715 10.347999572753906,-8.442999839782715 10.347999572753906,-8.442999839782715 C10.347999572753906,-8.442999839782715 10.347999572753906,-8.451000213623047 10.347999572753906,-8.451000213623047 C10.347999572753906,-8.451000213623047 10.326000213623047,-8.451000213623047 10.326000213623047,-8.451000213623047 C10.326000213623047,-8.451000213623047 10.326000213623047,-8.458000183105469 10.326000213623047,-8.458000183105469 C10.326000213623047,-8.458000183105469 10.29800033569336,-8.458000183105469 10.29800033569336,-8.458000183105469 C10.29800033569336,-8.458000183105469 10.29800033569336,-8.467000007629395 10.29800033569336,-8.467000007629395 C10.29800033569336,-8.467000007629395 10.324000358581543,-8.467000007629395 10.324000358581543,-8.467000007629395 C10.324000358581543,-8.467000007629395 10.324000358581543,-8.475000381469727 10.324000358581543,-8.475000381469727 C10.324000358581543,-8.475000381469727 10.303000450134277,-8.475000381469727 10.303000450134277,-8.475000381469727 C10.303000450134277,-8.475000381469727 10.303000450134277,-8.482000350952148 10.303000450134277,-8.482000350952148 C10.303000450134277,-8.482000350952148 10.281000137329102,-8.482000350952148 10.281000137329102,-8.482000350952148 C10.281000137329102,-8.482000350952148 10.281000137329102,-8.491999626159668 10.281000137329102,-8.491999626159668 C10.281000137329102,-8.491999626159668 10.260000228881836,-8.491999626159668 10.260000228881836,-8.491999626159668 C10.260000228881836,-8.491999626159668 10.260000228881836,-8.49899959564209 10.260000228881836,-8.49899959564209 C10.260000228881836,-8.49899959564209 10.246999740600586,-8.49899959564209 10.246999740600586,-8.49899959564209 C10.246999740600586,-8.49899959564209 10.246999740600586,-8.508000373840332 10.246999740600586,-8.508000373840332 C10.246999740600586,-8.508000373840332 10.210000038146973,-8.508000373840332 10.210000038146973,-8.508000373840332 C10.210000038146973,-8.508000373840332 10.210000038146973,-8.513999938964844 10.210000038146973,-8.513999938964844 C10.210000038146973,-8.513999938964844 10.189000129699707,-8.513999938964844 10.189000129699707,-8.513999938964844 C10.189000129699707,-8.513999938964844 10.189000129699707,-8.52299976348877 10.189000129699707,-8.52299976348877 C10.189000129699707,-8.52299976348877 10.166999816894531,-8.52299976348877 10.166999816894531,-8.52299976348877 C10.166999816894531,-8.52299976348877 10.166999816894531,-8.531000137329102 10.166999816894531,-8.531000137329102 C10.166999816894531,-8.531000137329102 10.147000312805176,-8.531000137329102 10.147000312805176,-8.531000137329102 C10.147000312805176,-8.531000137329102 10.147000312805176,-8.538000106811523 10.147000312805176,-8.538000106811523 C10.147000312805176,-8.538000106811523 10.135000228881836,-8.538000106811523 10.135000228881836,-8.538000106811523 C10.135000228881836,-8.538000106811523 10.135000228881836,-8.545999526977539 10.135000228881836,-8.545999526977539 C10.135000228881836,-8.545999526977539 10.097999572753906,-8.545999526977539 10.097999572753906,-8.545999526977539 C10.097999572753906,-8.545999526977539 10.097999572753906,-8.555000305175781 10.097999572753906,-8.555000305175781 C10.097999572753906,-8.555000305175781 10.111000061035156,-8.555000305175781 10.111000061035156,-8.555000305175781 C10.111000061035156,-8.555000305175781 10.111000061035156,-8.562000274658203 10.111000061035156,-8.562000274658203 C10.111000061035156,-8.562000274658203 10.08899974822998,-8.562000274658203 10.08899974822998,-8.562000274658203 C10.08899974822998,-8.562000274658203 10.08899974822998,-8.571999549865723 10.08899974822998,-8.571999549865723 C10.08899974822998,-8.571999549865723 10.067999839782715,-8.571999549865723 10.067999839782715,-8.571999549865723 C10.067999839782715,-8.571999549865723 10.067999839782715,-8.579000473022461 10.067999839782715,-8.579000473022461 C10.067999839782715,-8.579000473022461 10.055000305175781,-8.579000473022461 10.055000305175781,-8.579000473022461 C10.055000305175781,-8.579000473022461 10.055000305175781,-8.586999893188477 10.055000305175781,-8.586999893188477 C10.055000305175781,-8.586999893188477 10.032999992370605,-8.586999893188477 10.032999992370605,-8.586999893188477 C10.032999992370605,-8.586999893188477 10.032999992370605,-8.593999862670898 10.032999992370605,-8.593999862670898 C10.032999992370605,-8.593999862670898 9.996999740600586,-8.593999862670898 9.996999740600586,-8.593999862670898 C9.996999740600586,-8.593999862670898 9.996999740600586,-8.60200023651123 9.996999740600586,-8.60200023651123 C9.996999740600586,-8.60200023651123 10.057000160217285,-8.60200023651123 10.057000160217285,-8.60200023651123 C10.057000160217285,-8.60200023651123 10.057000160217285,-8.611000061035156 10.057000160217285,-8.611000061035156 C10.057000160217285,-8.611000061035156 10.03600025177002,-8.611000061035156 10.03600025177002,-8.611000061035156 C10.03600025177002,-8.611000061035156 10.03600025177002,-8.619999885559082 10.03600025177002,-8.619999885559082 C10.03600025177002,-8.619999885559082 10.015999794006348,-8.619999885559082 10.015999794006348,-8.619999885559082 C10.015999794006348,-8.619999885559082 10.015999794006348,-8.628000259399414 10.015999794006348,-8.628000259399414 C10.015999794006348,-8.628000259399414 10.003000259399414,-8.628000259399414 10.003000259399414,-8.628000259399414 C10.003000259399414,-8.628000259399414 10.003000259399414,-8.635000228881836 10.003000259399414,-8.635000228881836 C10.003000259399414,-8.635000228881836 9.96500015258789,-8.635000228881836 9.96500015258789,-8.635000228881836 C9.96500015258789,-8.635000228881836 9.96500015258789,-8.642999649047852 9.96500015258789,-8.642999649047852 C9.96500015258789,-8.642999649047852 9.944999694824219,-8.642999649047852 9.944999694824219,-8.642999649047852 C9.944999694824219,-8.642999649047852 9.944999694824219,-8.649999618530273 9.944999694824219,-8.649999618530273 C9.944999694824219,-8.649999618530273 9.92300033569336,-8.649999618530273 9.92300033569336,-8.649999618530273 C9.92300033569336,-8.649999618530273 9.92300033569336,-8.659000396728516 9.92300033569336,-8.659000396728516 C9.92300033569336,-8.659000396728516 9.90999984741211,-8.659000396728516 9.90999984741211,-8.659000396728516 C9.90999984741211,-8.659000396728516 9.90999984741211,-8.666999816894531 9.90999984741211,-8.666999816894531 C9.90999984741211,-8.666999816894531 9.888999938964844,-8.666999816894531 9.888999938964844,-8.666999816894531 C9.888999938964844,-8.666999816894531 9.888999938964844,-8.673999786376953 9.888999938964844,-8.673999786376953 C9.888999938964844,-8.673999786376953 9.85200023651123,-8.673999786376953 9.85200023651123,-8.673999786376953 C9.85200023651123,-8.673999786376953 9.85200023651123,-8.682000160217285 9.85200023651123,-8.682000160217285 C9.85200023651123,-8.682000160217285 9.831000328063965,-8.682000160217285 9.831000328063965,-8.682000160217285 C9.831000328063965,-8.682000160217285 9.831000328063965,-8.690999984741211 9.831000328063965,-8.690999984741211 C9.831000328063965,-8.690999984741211 9.810999870300293,-8.690999984741211 9.810999870300293,-8.690999984741211 C9.810999870300293,-8.690999984741211 9.810999870300293,-8.699000358581543 9.810999870300293,-8.699000358581543 C9.810999870300293,-8.699000358581543 9.79800033569336,-8.699000358581543 9.79800033569336,-8.699000358581543 C9.79800033569336,-8.699000358581543 9.79800033569336,-8.706000328063965 9.79800033569336,-8.706000328063965 C9.79800033569336,-8.706000328063965 9.777000427246094,-8.706000328063965 9.777000427246094,-8.706000328063965 C9.777000427246094,-8.706000328063965 9.777000427246094,-8.71500015258789 9.777000427246094,-8.71500015258789 C9.777000427246094,-8.71500015258789 9.755000114440918,-8.71500015258789 9.755000114440918,-8.71500015258789 C9.755000114440918,-8.71500015258789 9.755000114440918,-8.722999572753906 9.755000114440918,-8.722999572753906 C9.755000114440918,-8.722999572753906 9.718999862670898,-8.722999572753906 9.718999862670898,-8.722999572753906 C9.718999862670898,-8.722999572753906 9.718999862670898,-8.729999542236328 9.718999862670898,-8.729999542236328 C9.718999862670898,-8.729999542236328 9.696999549865723,-8.729999542236328 9.696999549865723,-8.729999542236328 C9.696999549865723,-8.729999542236328 9.696999549865723,-8.73799991607666 9.696999549865723,-8.73799991607666 C9.696999549865723,-8.73799991607666 9.710000038146973,-8.73799991607666 9.710000038146973,-8.73799991607666 C9.710000038146973,-8.73799991607666 9.710000038146973,-8.746999740600586 9.710000038146973,-8.746999740600586 C9.710000038146973,-8.746999740600586 9.687999725341797,-8.746999740600586 9.687999725341797,-8.746999740600586 C9.687999725341797,-8.746999740600586 9.687999725341797,-8.755000114440918 9.687999725341797,-8.755000114440918 C9.687999725341797,-8.755000114440918 9.666999816894531,-8.755000114440918 9.666999816894531,-8.755000114440918 C9.666999816894531,-8.755000114440918 9.666999816894531,-8.76200008392334 9.666999816894531,-8.76200008392334 C9.666999816894531,-8.76200008392334 9.631999969482422,-8.76200008392334 9.631999969482422,-8.76200008392334 C9.631999969482422,-8.76200008392334 9.631999969482422,-8.770999908447266 9.631999969482422,-8.770999908447266 C9.631999969482422,-8.770999908447266 9.609000205993652,-8.770999908447266 9.609000205993652,-8.770999908447266 C9.609000205993652,-8.770999908447266 9.609000205993652,-8.779000282287598 9.609000205993652,-8.779000282287598 C9.609000205993652,-8.779000282287598 9.597999572753906,-8.779000282287598 9.597999572753906,-8.779000282287598 C9.597999572753906,-8.779000282287598 9.597999572753906,-8.78600025177002 9.597999572753906,-8.78600025177002 C9.597999572753906,-8.78600025177002 9.609000205993652,-8.78600025177002 9.609000205993652,-8.78600025177002 C9.609000205993652,-8.78600025177002 9.609000205993652,-8.793999671936035 9.609000205993652,-8.793999671936035 C9.609000205993652,-8.793999671936035 9.58899974822998,-8.793999671936035 9.58899974822998,-8.793999671936035 C9.58899974822998,-8.793999671936035 9.58899974822998,-8.803000450134277 9.58899974822998,-8.803000450134277 C9.58899974822998,-8.803000450134277 9.567999839782715,-8.803000450134277 9.567999839782715,-8.803000450134277 C9.567999839782715,-8.803000450134277 9.567999839782715,-8.810999870300293 9.567999839782715,-8.810999870300293 C9.567999839782715,-8.810999870300293 9.538000106811523,-8.810999870300293 9.538000106811523,-8.810999870300293 C9.538000106811523,-8.810999870300293 9.538000106811523,-8.817999839782715 9.538000106811523,-8.817999839782715 C9.538000106811523,-8.817999839782715 9.517999649047852,-8.817999839782715 9.517999649047852,-8.817999839782715 C9.517999649047852,-8.817999839782715 9.517999649047852,-8.82699966430664 9.517999649047852,-8.82699966430664 C9.517999649047852,-8.82699966430664 9.496999740600586,-8.82699966430664 9.496999740600586,-8.82699966430664 C9.496999740600586,-8.82699966430664 9.496999740600586,-8.835000038146973 9.496999740600586,-8.835000038146973 C9.496999740600586,-8.835000038146973 9.491999626159668,-8.835000038146973 9.491999626159668,-8.835000038146973 C9.491999626159668,-8.835000038146973 9.491999626159668,-8.843999862670898 9.491999626159668,-8.843999862670898 C9.491999626159668,-8.843999862670898 9.470999717712402,-8.843999862670898 9.470999717712402,-8.843999862670898 C9.470999717712402,-8.843999862670898 9.470999717712402,-8.85200023651123 9.470999717712402,-8.85200023651123 C9.470999717712402,-8.85200023651123 9.442999839782715,-8.85200023651123 9.442999839782715,-8.85200023651123 C9.442999839782715,-8.85200023651123 9.442999839782715,-8.859000205993652 9.442999839782715,-8.859000205993652 C9.442999839782715,-8.859000205993652 9.420999526977539,-8.859000205993652 9.420999526977539,-8.859000205993652 C9.420999526977539,-8.859000205993652 9.420999526977539,-8.866999626159668 9.420999526977539,-8.866999626159668 C9.420999526977539,-8.866999626159668 4.2210001945495605,-8.866999626159668 4.2210001945495605,-8.866999626159668z"></path></g><g opacity="1" transform="matrix(1,0,0,1,9.961999893188477,25.604000091552734)"><path fill="rgb(255,255,255)" fill-opacity="1" d=" M4.76200008392334,-8.628000259399414 C4.76200008392334,-8.628000259399414 0.004999999888241291,-0.37599998712539673 0.004999999888241291,-0.37599998712539673 C0.004999999888241291,-0.37599998712539673 -4.76200008392334,-8.628000259399414 -4.76200008392334,-8.628000259399414 C-4.76200008392334,-8.628000259399414 -9.961999893188477,-8.628000259399414 -9.961999893188477,-8.628000259399414 C-9.961999893188477,-8.628000259399414 -0.003000000026077032,8.628000259399414 -0.003000000026077032,8.628000259399414 C-0.003000000026077032,8.628000259399414 9.961999893188477,-8.628000259399414 9.961999893188477,-8.628000259399414 C9.961999893188477,-8.628000259399414 4.76200008392334,-8.628000259399414 4.76200008392334,-8.628000259399414z"></path></g></g><g opacity="1" transform="matrix(1,0,0,1,0,0)"><g opacity="1" transform="matrix(1,0,0,1,24.452999114990234,25.851999282836914)"><path fill="rgb(255,74,88)" fill-opacity="1" d=" M-10.92300033569336,8.86400032043457 C-10.92300033569336,8.86400032043457 -10.92300033569336,8.854999542236328 -10.92300033569336,8.854999542236328 C-10.92300033569336,8.854999542236328 -10.930999755859375,8.854999542236328 -10.930999755859375,8.854999542236328 C-10.930999755859375,8.854999542236328 -10.930999755859375,8.847000122070312 -10.930999755859375,8.847000122070312 C-10.930999755859375,8.847000122070312 -10.946999549865723,8.847000122070312 -10.946999549865723,8.847000122070312 C-10.946999549865723,8.847000122070312 -10.946999549865723,8.84000015258789 -10.946999549865723,8.84000015258789 C-10.946999549865723,8.84000015258789 -10.963000297546387,8.84000015258789 -10.963000297546387,8.84000015258789 C-10.963000297546387,8.84000015258789 -10.963000297546387,8.831000328063965 -10.963000297546387,8.831000328063965 C-10.963000297546387,8.831000328063965 -10.970000267028809,8.831000328063965 -10.970000267028809,8.831000328063965 C-10.970000267028809,8.831000328063965 -10.970000267028809,8.821999549865723 -10.970000267028809,8.821999549865723 C-10.970000267028809,8.821999549865723 -10.979000091552734,8.821999549865723 -10.979000091552734,8.821999549865723 C-10.979000091552734,8.821999549865723 -10.979000091552734,8.814000129699707 -10.979000091552734,8.814000129699707 C-10.979000091552734,8.814000129699707 -10.987000465393066,8.814000129699707 -10.987000465393066,8.814000129699707 C-10.987000465393066,8.814000129699707 -10.987000465393066,8.805999755859375 -10.987000465393066,8.805999755859375 C-10.987000465393066,8.805999755859375 -10.994000434875488,8.805999755859375 -10.994000434875488,8.805999755859375 C-10.994000434875488,8.805999755859375 -10.994000434875488,8.798999786376953 -10.994000434875488,8.798999786376953 C-10.994000434875488,8.798999786376953 -11.01099967956543,8.798999786376953 -11.01099967956543,8.798999786376953 C-11.01099967956543,8.798999786376953 -11.01099967956543,8.788999557495117 -11.01099967956543,8.788999557495117 C-11.01099967956543,8.788999557495117 -11.017999649047852,8.788999557495117 -11.017999649047852,8.788999557495117 C-11.017999649047852,8.788999557495117 -11.017999649047852,8.781000137329102 -11.017999649047852,8.781000137329102 C-11.017999649047852,8.781000137329102 -11.034000396728516,8.781000137329102 -11.034000396728516,8.781000137329102 C-11.034000396728516,8.781000137329102 -11.034000396728516,8.77299976348877 -11.034000396728516,8.77299976348877 C-11.034000396728516,8.77299976348877 -11.041000366210938,8.77299976348877 -11.041000366210938,8.77299976348877 C-11.041000366210938,8.77299976348877 -11.041000366210938,8.765000343322754 -11.041000366210938,8.765000343322754 C-11.041000366210938,8.765000343322754 -11.04699993133545,8.765000343322754 -11.04699993133545,8.765000343322754 C-11.04699993133545,8.765000343322754 -11.04699993133545,8.756999969482422 -11.04699993133545,8.756999969482422 C-11.04699993133545,8.756999969482422 -11.0649995803833,8.756999969482422 -11.0649995803833,8.756999969482422 C-11.0649995803833,8.756999969482422 -11.0649995803833,8.748000144958496 -11.0649995803833,8.748000144958496 C-11.0649995803833,8.748000144958496 -11.072999954223633,8.748000144958496 -11.072999954223633,8.748000144958496 C-11.072999954223633,8.748000144958496 -11.072999954223633,8.739999771118164 -11.072999954223633,8.739999771118164 C-11.072999954223633,8.739999771118164 -11.081000328063965,8.739999771118164 -11.081000328063965,8.739999771118164 C-11.081000328063965,8.739999771118164 -11.081000328063965,8.732000350952148 -11.081000328063965,8.732000350952148 C-11.081000328063965,8.732000350952148 -11.08899974822998,8.732000350952148 -11.08899974822998,8.732000350952148 C-11.08899974822998,8.732000350952148 -11.08899974822998,8.723999977111816 -11.08899974822998,8.723999977111816 C-11.08899974822998,8.723999977111816 -11.104000091552734,8.723999977111816 -11.104000091552734,8.723999977111816 C-11.104000091552734,8.723999977111816 -11.104000091552734,8.715999603271484 -11.104000091552734,8.715999603271484 C-11.104000091552734,8.715999603271484 -11.121000289916992,8.715999603271484 -11.121000289916992,8.715999603271484 C-11.121000289916992,8.715999603271484 -11.121000289916992,8.706999778747559 -11.121000289916992,8.706999778747559 C-11.121000289916992,8.706999778747559 -11.128000259399414,8.706999778747559 -11.128000259399414,8.706999778747559 C-11.128000259399414,8.706999778747559 -11.128000259399414,8.699000358581543 -11.128000259399414,8.699000358581543 C-11.128000259399414,8.699000358581543 -11.13599967956543,8.699000358581543 -11.13599967956543,8.699000358581543 C-11.13599967956543,8.699000358581543 -11.13599967956543,8.690999984741211 -11.13599967956543,8.690999984741211 C-11.13599967956543,8.690999984741211 -11.147000312805176,8.690999984741211 -11.147000312805176,8.690999984741211 C-11.147000312805176,8.690999984741211 -11.147000312805176,8.682000160217285 -11.147000312805176,8.682000160217285 C-11.147000312805176,8.682000160217285 -11.152000427246094,8.682000160217285 -11.152000427246094,8.682000160217285 C-11.152000427246094,8.682000160217285 -11.152000427246094,8.675000190734863 -11.152000427246094,8.675000190734863 C-11.152000427246094,8.675000190734863 -11.15999984741211,8.675000190734863 -11.15999984741211,8.675000190734863 C-11.15999984741211,8.675000190734863 -11.15999984741211,8.666000366210938 -11.15999984741211,8.666000366210938 C-11.15999984741211,8.666000366210938 -11.184000015258789,8.666000366210938 -11.184000015258789,8.666000366210938 C-11.184000015258789,8.666000366210938 -11.184000015258789,8.657999992370605 -11.184000015258789,8.657999992370605 C-11.184000015258789,8.657999992370605 -11.192000389099121,8.657999992370605 -11.192000389099121,8.657999992370605 C-11.192000389099121,8.657999992370605 -11.192000389099121,8.64900016784668 -11.192000389099121,8.64900016784668 C-11.192000389099121,8.64900016784668 -11.199000358581543,8.64900016784668 -11.199000358581543,8.64900016784668 C-11.199000358581543,8.64900016784668 -11.199000358581543,8.640999794006348 -11.199000358581543,8.640999794006348 C-11.199000358581543,8.640999794006348 -11.208000183105469,8.640999794006348 -11.208000183105469,8.640999794006348 C-11.208000183105469,8.640999794006348 -11.208000183105469,8.633999824523926 -11.208000183105469,8.633999824523926 C-11.208000183105469,8.633999824523926 -11.215999603271484,8.633999824523926 -11.215999603271484,8.633999824523926 C-11.215999603271484,8.633999824523926 -11.215999603271484,8.625 -11.215999603271484,8.625 C-11.215999603271484,8.625 -11.230999946594238,8.625 -11.230999946594238,8.625 C-11.230999946594238,8.625 -11.230999946594238,8.616000175476074 -11.230999946594238,8.616000175476074 C-11.230999946594238,8.616000175476074 -11.246999740600586,8.616000175476074 -11.246999740600586,8.616000175476074 C-11.246999740600586,8.616000175476074 -11.246999740600586,8.607999801635742 -11.246999740600586,8.607999801635742 C-11.246999740600586,8.607999801635742 -11.255000114440918,8.607999801635742 -11.255000114440918,8.607999801635742 C-11.255000114440918,8.607999801635742 -11.255000114440918,8.600000381469727 -11.255000114440918,8.600000381469727 C-11.255000114440918,8.600000381469727 -11.26200008392334,8.600000381469727 -11.26200008392334,8.600000381469727 C-11.26200008392334,8.600000381469727 -11.26200008392334,8.593000411987305 -11.26200008392334,8.593000411987305 C-11.26200008392334,8.593000411987305 -11.270000457763672,8.593000411987305 -11.270000457763672,8.593000411987305 C-11.270000457763672,8.593000411987305 -11.270000457763672,8.583000183105469 -11.270000457763672,8.583000183105469 C-11.270000457763672,8.583000183105469 -11.279000282287598,8.583000183105469 -11.279000282287598,8.583000183105469 C-11.279000282287598,8.583000183105469 -11.279000282287598,8.574999809265137 -11.279000282287598,8.574999809265137 C-11.279000282287598,8.574999809265137 -11.293999671936035,8.574999809265137 -11.293999671936035,8.574999809265137 C-11.293999671936035,8.574999809265137 -11.293999671936035,8.567000389099121 -11.293999671936035,8.567000389099121 C-11.293999671936035,8.567000389099121 -11.302000045776367,8.567000389099121 -11.302000045776367,8.567000389099121 C-11.302000045776367,8.567000389099121 -11.302000045776367,8.559000015258789 -11.302000045776367,8.559000015258789 C-11.302000045776367,8.559000015258789 -11.317999839782715,8.559000015258789 -11.317999839782715,8.559000015258789 C-11.317999839782715,8.559000015258789 -11.317999839782715,8.550999641418457 -11.317999839782715,8.550999641418457 C-11.317999839782715,8.550999641418457 -11.326000213623047,8.550999641418457 -11.326000213623047,8.550999641418457 C-11.326000213623047,8.550999641418457 -11.326000213623047,8.541999816894531 -11.326000213623047,8.541999816894531 C-11.326000213623047,8.541999816894531 -11.333000183105469,8.541999816894531 -11.333000183105469,8.541999816894531 C-11.333000183105469,8.541999816894531 -11.333000183105469,8.534000396728516 -11.333000183105469,8.534000396728516 C-11.333000183105469,8.534000396728516 -11.347000122070312,8.534000396728516 -11.347000122070312,8.534000396728516 C-11.347000122070312,8.534000396728516 -11.347000122070312,8.526000022888184 -11.347000122070312,8.526000022888184 C-11.347000122070312,8.526000022888184 -11.357000350952148,8.526000022888184 -11.357000350952148,8.526000022888184 C-11.357000350952148,8.526000022888184 -11.357000350952148,8.517000198364258 -11.357000350952148,8.517000198364258 C-11.357000350952148,8.517000198364258 -11.364999771118164,8.517000198364258 -11.364999771118164,8.517000198364258 C-11.364999771118164,8.517000198364258 -11.364999771118164,8.510000228881836 -11.364999771118164,8.510000228881836 C-11.364999771118164,8.510000228881836 -11.37399959564209,8.510000228881836 -11.37399959564209,8.510000228881836 C-11.37399959564209,8.510000228881836 -11.37399959564209,8.50100040435791 -11.37399959564209,8.50100040435791 C-11.37399959564209,8.50100040435791 -11.388999938964844,8.50100040435791 -11.388999938964844,8.50100040435791 C-11.388999938964844,8.50100040435791 -11.388999938964844,8.493000030517578 -11.388999938964844,8.493000030517578 C-11.388999938964844,8.493000030517578 -11.397000312805176,8.493000030517578 -11.397000312805176,8.493000030517578 C-11.397000312805176,8.493000030517578 -11.397000312805176,8.484999656677246 -11.397000312805176,8.484999656677246 C-11.397000312805176,8.484999656677246 -11.413000106811523,8.484999656677246 -11.413000106811523,8.484999656677246 C-11.413000106811523,8.484999656677246 -11.413000106811523,8.47599983215332 -11.413000106811523,8.47599983215332 C-11.413000106811523,8.47599983215332 -11.420999526977539,8.47599983215332 -11.420999526977539,8.47599983215332 C-11.420999526977539,8.47599983215332 -11.420999526977539,8.468000411987305 -11.420999526977539,8.468000411987305 C-11.420999526977539,8.468000411987305 -11.428000450134277,8.468000411987305 -11.428000450134277,8.468000411987305 C-11.428000450134277,8.468000411987305 -11.428000450134277,8.461000442504883 -11.428000450134277,8.461000442504883 C-11.428000450134277,8.461000442504883 -11.437000274658203,8.461000442504883 -11.437000274658203,8.461000442504883 C-11.437000274658203,8.461000442504883 -11.437000274658203,8.45199966430664 -11.437000274658203,8.45199966430664 C-11.437000274658203,8.45199966430664 -11.446999549865723,8.45199966430664 -11.446999549865723,8.45199966430664 C-11.446999549865723,8.45199966430664 -11.446999549865723,8.442999839782715 -11.446999549865723,8.442999839782715 C-11.446999549865723,8.442999839782715 -11.468000411987305,8.442999839782715 -11.468000411987305,8.442999839782715 C-11.468000411987305,8.442999839782715 -11.468000411987305,8.4350004196167 -11.468000411987305,8.4350004196167 C-11.468000411987305,8.4350004196167 -11.47599983215332,8.4350004196167 -11.47599983215332,8.4350004196167 C-11.47599983215332,8.4350004196167 -11.47599983215332,8.427000045776367 -11.47599983215332,8.427000045776367 C-11.47599983215332,8.427000045776367 -11.484000205993652,8.427000045776367 -11.484000205993652,8.427000045776367 C-11.484000205993652,8.427000045776367 -11.484000205993652,8.420000076293945 -11.484000205993652,8.420000076293945 C-11.484000205993652,8.420000076293945 -11.491000175476074,8.420000076293945 -11.491000175476074,8.420000076293945 C-11.491000175476074,8.420000076293945 -11.491000175476074,8.40999984741211 -11.491000175476074,8.40999984741211 C-11.491000175476074,8.40999984741211 -11.49899959564209,8.40999984741211 -11.49899959564209,8.40999984741211 C-11.49899959564209,8.40999984741211 -11.49899959564209,8.402000427246094 -11.49899959564209,8.402000427246094 C-11.49899959564209,8.402000427246094 -11.508000373840332,8.402000427246094 -11.508000373840332,8.402000427246094 C-11.508000373840332,8.402000427246094 -11.508000373840332,8.394000053405762 -11.508000373840332,8.394000053405762 C-11.508000373840332,8.394000053405762 -11.531000137329102,8.394000053405762 -11.531000137329102,8.394000053405762 C-11.531000137329102,8.394000053405762 -11.531000137329102,8.38599967956543 -11.531000137329102,8.38599967956543 C-11.531000137329102,8.38599967956543 -11.538999557495117,8.38599967956543 -11.538999557495117,8.38599967956543 C-11.538999557495117,8.38599967956543 -11.538999557495117,8.378000259399414 -11.538999557495117,8.378000259399414 C-11.538999557495117,8.378000259399414 -11.54699993133545,8.378000259399414 -11.54699993133545,8.378000259399414 C-11.54699993133545,8.378000259399414 -8.696999549865723,3.441999912261963 -8.696999549865723,3.441999912261963 C-8.696999549865723,3.441999912261963 5.380000114440918,3.441999912261963 5.380000114440918,3.441999912261963 C5.546000003814697,3.443000078201294 5.704999923706055,3.378000020980835 5.823999881744385,3.260999917984009 C5.940000057220459,3.1470000743865967 6.005000114440918,2.990000009536743 6.004000186920166,2.8269999027252197 C6.004000186920166,2.7769999504089355 5.998000144958496,2.7260000705718994 5.98799991607666,2.677000045776367 C5.98799991607666,2.677000045776367 2.302000045776367,2.677000045776367 2.302000045776367,2.677000045776367 C1.062999963760376,2.6989998817443848 -0.1459999978542328,2.2939999103546143 -1.1230000257492065,1.531000018119812 C-1.1230000257492065,1.531000018119812 -1.1729999780654907,1.49399995803833 -1.1729999780654907,1.49399995803833 C-1.1729999780654907,1.49399995803833 -1.2109999656677246,1.465999960899353 -1.2109999656677246,1.465999960899353 C-1.2769999504089355,1.4190000295639038 -1.3420000076293945,1.371000051498413 -1.4049999713897705,1.3209999799728394 C-1.4670000076293945,1.2719999551773071 -1.534000039100647,1.2209999561309814 -1.6050000190734863,1.1699999570846558 C-1.8250000476837158,1.0019999742507935 -2.0339999198913574,0.8209999799728394 -2.2300000190734863,0.625 C-3.302999973297119,-0.40299999713897705 -3.8980000019073486,-1.8320000171661377 -3.872999906539917,-3.318000078201294 C-3.8929998874664307,-4.794000148773193 -3.305000066757202,-6.2129998207092285 -2.246999979019165,-7.242000102996826 C-1.218999981880188,-8.303000450134277 0.20200000703334808,-8.890999794006348 1.6779999732971191,-8.869000434875488 C1.6779999732971191,-8.869000434875488 10.40999984741211,-8.869000434875488 10.40999984741211,-8.869000434875488 C10.40999984741211,-8.869000434875488 10.40999984741211,-8.861000061035156 10.40999984741211,-8.861000061035156 C10.40999984741211,-8.861000061035156 10.42199993133545,-8.861000061035156 10.42199993133545,-8.861000061035156 C10.42199993133545,-8.861000061035156 10.42199993133545,-8.852999687194824 10.42199993133545,-8.852999687194824 C10.42199993133545,-8.852999687194824 10.444000244140625,-8.852999687194824 10.444000244140625,-8.852999687194824 C10.444000244140625,-8.852999687194824 10.444000244140625,-8.843999862670898 10.444000244140625,-8.843999862670898 C10.444000244140625,-8.843999862670898 10.456000328063965,-8.843999862670898 10.456000328063965,-8.843999862670898 C10.456000328063965,-8.843999862670898 10.456000328063965,-8.836000442504883 10.456000328063965,-8.836000442504883 C10.456000328063965,-8.836000442504883 10.45300006866455,-8.836000442504883 10.45300006866455,-8.836000442504883 C10.45300006866455,-8.836000442504883 10.45300006866455,-8.82800006866455 10.45300006866455,-8.82800006866455 C10.45300006866455,-8.82800006866455 10.473999977111816,-8.82800006866455 10.473999977111816,-8.82800006866455 C10.473999977111816,-8.82800006866455 10.473999977111816,-8.819999694824219 10.473999977111816,-8.819999694824219 C10.473999977111816,-8.819999694824219 10.487000465393066,-8.819999694824219 10.487000465393066,-8.819999694824219 C10.487000465393066,-8.819999694824219 10.487000465393066,-8.810999870300293 10.487000465393066,-8.810999870300293 C10.487000465393066,-8.810999870300293 10.487000465393066,-8.803000450134277 10.487000465393066,-8.803000450134277 C10.487000465393066,-8.803000450134277 10.513999938964844,-8.803000450134277 10.513999938964844,-8.803000450134277 C10.513999938964844,-8.803000450134277 10.513999938964844,-8.795000076293945 10.513999938964844,-8.795000076293945 C10.513999938964844,-8.795000076293945 10.526000022888184,-8.795000076293945 10.526000022888184,-8.795000076293945 C10.526000022888184,-8.795000076293945 10.526000022888184,-8.786999702453613 10.526000022888184,-8.786999702453613 C10.526000022888184,-8.786999702453613 10.538000106811523,-8.786999702453613 10.538000106811523,-8.786999702453613 C10.538000106811523,-8.786999702453613 10.538000106811523,-8.777999877929688 10.538000106811523,-8.777999877929688 C10.538000106811523,-8.777999877929688 10.550999641418457,-8.777999877929688 10.550999641418457,-8.777999877929688 C10.550999641418457,-8.777999877929688 10.550999641418457,-8.770000457763672 10.550999641418457,-8.770000457763672 C10.550999641418457,-8.770000457763672 10.564000129699707,-8.770000457763672 10.564000129699707,-8.770000457763672 C10.564000129699707,-8.770000457763672 10.564000129699707,-8.76200008392334 10.564000129699707,-8.76200008392334 C10.564000129699707,-8.76200008392334 10.553000450134277,-8.76200008392334 10.553000450134277,-8.76200008392334 C10.553000450134277,-8.76200008392334 10.553000450134277,-8.753999710083008 10.553000450134277,-8.753999710083008 C10.553000450134277,-8.753999710083008 10.553000450134277,-8.744999885559082 10.553000450134277,-8.744999885559082 C10.553000450134277,-8.744999885559082 10.574999809265137,-8.744999885559082 10.574999809265137,-8.744999885559082 C10.574999809265137,-8.744999885559082 10.574999809265137,-8.737000465393066 10.574999809265137,-8.737000465393066 C10.574999809265137,-8.737000465393066 10.586000442504883,-8.737000465393066 10.586000442504883,-8.737000465393066 C10.586000442504883,-8.737000465393066 10.586000442504883,-8.729000091552734 10.586000442504883,-8.729000091552734 C10.586000442504883,-8.729000091552734 10.597999572753906,-8.729000091552734 10.597999572753906,-8.729000091552734 C10.597999572753906,-8.729000091552734 10.597999572753906,-8.720999717712402 10.597999572753906,-8.720999717712402 C10.597999572753906,-8.720999717712402 10.612000465393066,-8.720999717712402 10.612000465393066,-8.720999717712402 C10.612000465393066,-8.720999717712402 10.612000465393066,-8.711999893188477 10.612000465393066,-8.711999893188477 C10.612000465393066,-8.711999893188477 10.638999938964844,-8.711999893188477 10.638999938964844,-8.711999893188477 C10.638999938964844,-8.711999893188477 10.638999938964844,-8.704000473022461 10.638999938964844,-8.704000473022461 C10.638999938964844,-8.704000473022461 10.651000022888184,-8.704000473022461 10.651000022888184,-8.704000473022461 C10.651000022888184,-8.704000473022461 10.651000022888184,-8.696000099182129 10.651000022888184,-8.696000099182129 C10.651000022888184,-8.696000099182129 10.663999557495117,-8.696000099182129 10.663999557495117,-8.696000099182129 C10.663999557495117,-8.696000099182129 10.663999557495117,-8.687999725341797 10.663999557495117,-8.687999725341797 C10.663999557495117,-8.687999725341797 10.675999641418457,-8.687999725341797 10.675999641418457,-8.687999725341797 C10.675999641418457,-8.687999725341797 10.675999641418457,-8.678999900817871 10.675999641418457,-8.678999900817871 C10.675999641418457,-8.678999900817871 10.696999549865723,-8.678999900817871 10.696999549865723,-8.678999900817871 C10.696999549865723,-8.678999900817871 10.696999549865723,-8.670999526977539 10.696999549865723,-8.670999526977539 C10.696999549865723,-8.670999526977539 10.717000007629395,-8.670999526977539 10.717000007629395,-8.670999526977539 C10.717000007629395,-8.670999526977539 10.717000007629395,-8.663000106811523 10.717000007629395,-8.663000106811523 C10.717000007629395,-8.663000106811523 10.729000091552734,-8.663000106811523 10.729000091552734,-8.663000106811523 C10.729000091552734,-8.663000106811523 10.729000091552734,-8.654999732971191 10.729000091552734,-8.654999732971191 C10.729000091552734,-8.654999732971191 10.741999626159668,-8.654999732971191 10.741999626159668,-8.654999732971191 C10.741999626159668,-8.654999732971191 10.741999626159668,-8.645999908447266 10.741999626159668,-8.645999908447266 C10.741999626159668,-8.645999908447266 10.741999626159668,-8.637999534606934 10.741999626159668,-8.637999534606934 C10.741999626159668,-8.637999534606934 10.76200008392334,-8.637999534606934 10.76200008392334,-8.637999534606934 C10.76200008392334,-8.637999534606934 10.76200008392334,-8.630000114440918 10.76200008392334,-8.630000114440918 C10.76200008392334,-8.630000114440918 10.782999992370605,-8.630000114440918 10.782999992370605,-8.630000114440918 C10.782999992370605,-8.630000114440918 10.782999992370605,-8.621999740600586 10.782999992370605,-8.621999740600586 C10.782999992370605,-8.621999740600586 10.795000076293945,-8.621999740600586 10.795000076293945,-8.621999740600586 C10.795000076293945,-8.621999740600586 10.795000076293945,-8.61400032043457 10.795000076293945,-8.61400032043457 C10.795000076293945,-8.61400032043457 10.8149995803833,-8.61400032043457 10.8149995803833,-8.61400032043457 C10.8149995803833,-8.61400032043457 10.8149995803833,-8.604999542236328 10.8149995803833,-8.604999542236328 C10.8149995803833,-8.604999542236328 10.753000259399414,-8.604999542236328 10.753000259399414,-8.604999542236328 C10.753000259399414,-8.604999542236328 10.753000259399414,-8.597000122070312 10.753000259399414,-8.597000122070312 C10.753000259399414,-8.597000122070312 10.753000259399414,-8.58899974822998 10.753000259399414,-8.58899974822998 C10.753000259399414,-8.58899974822998 10.765000343322754,-8.58899974822998 10.765000343322754,-8.58899974822998 C10.765000343322754,-8.58899974822998 10.765000343322754,-8.581000328063965 10.765000343322754,-8.581000328063965 C10.765000343322754,-8.581000328063965 10.78499984741211,-8.581000328063965 10.78499984741211,-8.581000328063965 C10.78499984741211,-8.581000328063965 10.78499984741211,-8.571999549865723 10.78499984741211,-8.571999549865723 C10.78499984741211,-8.571999549865723 10.798999786376953,-8.571999549865723 10.798999786376953,-8.571999549865723 C10.798999786376953,-8.571999549865723 10.798999786376953,-8.564000129699707 10.798999786376953,-8.564000129699707 C10.798999786376953,-8.564000129699707 10.810999870300293,-8.564000129699707 10.810999870300293,-8.564000129699707 C10.810999870300293,-8.564000129699707 10.810999870300293,-8.555999755859375 10.810999870300293,-8.555999755859375 C10.810999870300293,-8.555999755859375 10.831000328063965,-8.555999755859375 10.831000328063965,-8.555999755859375 C10.831000328063965,-8.555999755859375 10.831000328063965,-8.54800033569336 10.831000328063965,-8.54800033569336 C10.831000328063965,-8.54800033569336 10.843999862670898,-8.54800033569336 10.843999862670898,-8.54800033569336 C10.843999862670898,-8.54800033569336 10.843999862670898,-8.538999557495117 10.843999862670898,-8.538999557495117 C10.843999862670898,-8.538999557495117 10.864999771118164,-8.538999557495117 10.864999771118164,-8.538999557495117 C10.864999771118164,-8.538999557495117 10.864999771118164,-8.531000137329102 10.864999771118164,-8.531000137329102 C10.864999771118164,-8.531000137329102 10.87600040435791,-8.531000137329102 10.87600040435791,-8.531000137329102 C10.87600040435791,-8.531000137329102 10.87600040435791,-8.52299976348877 10.87600040435791,-8.52299976348877 C10.87600040435791,-8.52299976348877 10.852999687194824,-8.52299976348877 10.852999687194824,-8.52299976348877 C10.852999687194824,-8.52299976348877 10.852999687194824,-8.515000343322754 10.852999687194824,-8.515000343322754 C10.852999687194824,-8.515000343322754 10.866999626159668,-8.515000343322754 10.866999626159668,-8.515000343322754 C10.866999626159668,-8.515000343322754 10.866999626159668,-8.505999565124512 10.866999626159668,-8.505999565124512 C10.866999626159668,-8.505999565124512 10.878999710083008,-8.505999565124512 10.878999710083008,-8.505999565124512 C10.878999710083008,-8.505999565124512 10.878999710083008,-8.498000144958496 10.878999710083008,-8.498000144958496 C10.878999710083008,-8.498000144958496 10.89900016784668,-8.498000144958496 10.89900016784668,-8.498000144958496 C10.89900016784668,-8.498000144958496 10.89900016784668,-8.489999771118164 10.89900016784668,-8.489999771118164 C10.89900016784668,-8.489999771118164 10.920000076293945,-8.489999771118164 10.920000076293945,-8.489999771118164 C10.920000076293945,-8.489999771118164 10.920000076293945,-8.482000350952148 10.920000076293945,-8.482000350952148 C10.920000076293945,-8.482000350952148 10.932000160217285,-8.482000350952148 10.932000160217285,-8.482000350952148 C10.932000160217285,-8.482000350952148 10.932000160217285,-8.472999572753906 10.932000160217285,-8.472999572753906 C10.932000160217285,-8.472999572753906 10.946000099182129,-8.472999572753906 10.946000099182129,-8.472999572753906 C10.946000099182129,-8.472999572753906 10.946000099182129,-8.46500015258789 10.946000099182129,-8.46500015258789 C10.946000099182129,-8.46500015258789 10.958000183105469,-8.46500015258789 10.958000183105469,-8.46500015258789 C10.958000183105469,-8.46500015258789 10.958000183105469,-8.456999778747559 10.958000183105469,-8.456999778747559 C10.958000183105469,-8.456999778747559 10.977999687194824,-8.456999778747559 10.977999687194824,-8.456999778747559 C10.977999687194824,-8.456999778747559 10.977999687194824,-8.449000358581543 10.977999687194824,-8.449000358581543 C10.977999687194824,-8.449000358581543 10.991000175476074,-8.449000358581543 10.991000175476074,-8.449000358581543 C10.991000175476074,-8.449000358581543 10.991000175476074,-8.4399995803833 10.991000175476074,-8.4399995803833 C10.991000175476074,-8.4399995803833 11.01099967956543,-8.4399995803833 11.01099967956543,-8.4399995803833 C11.01099967956543,-8.4399995803833 11.01099967956543,-8.432000160217285 11.01099967956543,-8.432000160217285 C11.01099967956543,-8.432000160217285 11.02299976348877,-8.432000160217285 11.02299976348877,-8.432000160217285 C11.02299976348877,-8.432000160217285 11.02299976348877,-8.423999786376953 11.02299976348877,-8.423999786376953 C11.02299976348877,-8.423999786376953 11.03499984741211,-8.423999786376953 11.03499984741211,-8.423999786376953 C11.03499984741211,-8.423999786376953 11.03499984741211,-8.416000366210938 11.03499984741211,-8.416000366210938 C11.03499984741211,-8.416000366210938 11.04800033569336,-8.416000366210938 11.04800033569336,-8.416000366210938 C11.04800033569336,-8.416000366210938 11.04800033569336,-8.406999588012695 11.04800033569336,-8.406999588012695 C11.04800033569336,-8.406999588012695 11.069000244140625,-8.406999588012695 11.069000244140625,-8.406999588012695 C11.069000244140625,-8.406999588012695 11.069000244140625,-8.39900016784668 11.069000244140625,-8.39900016784668 C11.069000244140625,-8.39900016784668 11.08899974822998,-8.39900016784668 11.08899974822998,-8.39900016784668 C11.08899974822998,-8.39900016784668 11.08899974822998,-8.390999794006348 11.08899974822998,-8.390999794006348 C11.08899974822998,-8.390999794006348 11.08899974822998,-8.383000373840332 11.08899974822998,-8.383000373840332 C11.08899974822998,-8.383000373840332 11.10099983215332,-8.383000373840332 11.10099983215332,-8.383000373840332 C11.10099983215332,-8.383000373840332 9.005000114440918,-4.896999835968018 9.005000114440918,-4.896999835968018 C9.005000114440918,-4.896999835968018 8.184000015258789,-3.4690001010894775 8.184000015258789,-3.4690001010894775 C8.184000015258789,-3.4690001010894775 2.302000045776367,-3.4690001010894775 2.302000045776367,-3.4690001010894775 C1.9630000591278076,-3.4660000801086426 1.690000057220459,-3.191999912261963 1.6859999895095825,-2.8529999256134033 C1.6859999895095825,-2.802999973297119 1.6920000314712524,-2.752000093460083 1.7029999494552612,-2.703000068664551 C1.7029999494552612,-2.703000068664551 5.388000011444092,-2.703000068664551 5.388000011444092,-2.703000068664551 C6.482999801635742,-2.7190001010894775 7.554999828338623,-2.3980000019073486 8.460000038146973,-1.784000039100647 C8.541999816894531,-1.7280000448226929 8.623000144958496,-1.6710000038146973 8.704000473022461,-1.6109999418258667 C8.770999908447266,-1.562000036239624 8.836999893188477,-1.5119999647140503 8.904999732971191,-1.4600000381469727 C8.970999717712402,-1.4079999923706055 9.031000137329102,-1.3630000352859497 9.083999633789062,-1.3250000476837158 C9.083999633789062,-1.3250000476837158 9.154000282287598,-1.2690000534057617 9.154000282287598,-1.2690000534057617 C9.425000190734863,-1.0750000476837158 9.680000305175781,-0.8600000143051147 9.916000366210938,-0.6240000128746033 C10.0600004196167,-0.47600001096725464 10.194000244140625,-0.32499998807907104 10.315999984741211,-0.17000000178813934 C11.126999855041504,0.8090000152587891 11.560999870300293,2.0460000038146973 11.538999557495117,3.315999984741211 C11.5600004196167,4.793000221252441 10.970999717712402,6.211999893188477 9.911999702453613,7.239999771118164 C8.88599967956543,8.302000045776367 7.465000152587891,8.890999794006348 5.988999843597412,8.866999626159668 C5.988999843597412,8.866999626159668 -10.92300033569336,8.86400032043457 -10.92300033569336,8.86400032043457z"></path></g><g opacity="1" transform="matrix(1,0,0,1,24.143999099731445,25.608999252319336)"><path fill="rgb(255,255,255)" fill-opacity="1" d=" M11.225000381469727,3.0829999446868896 C11.246000289916992,4.559000015258789 10.656999588012695,5.978000164031982 9.597999572753906,7.006999969482422 C8.571999549865723,8.067999839782715 7.151000022888184,8.656999588012695 5.673999786376953,8.633000373840332 C5.673999786376953,8.633000373840332 -11.244999885559082,8.633000373840332 -11.244999885559082,8.633000373840332 C-11.244999885559082,8.633000373840332 -8.395999908447266,3.697000026702881 -8.395999908447266,3.697000026702881 C-8.395999908447266,3.697000026702881 5.682000160217285,3.697000026702881 5.682000160217285,3.697000026702881 C5.8470001220703125,3.697999954223633 6.005000114440918,3.632999897003174 6.122000217437744,3.5160000324249268 C6.239999771118164,3.4010000228881836 6.306000232696533,3.244999885559082 6.304999828338623,3.0820000171661377 C6.307000160217285,2.9179999828338623 6.241000175476074,2.760999917984009 6.122000217437744,2.6470000743865967 C6.00600004196167,2.5290000438690186 5.8480000495910645,2.4639999866485596 5.682000160217285,2.4660000801086426 C5.682000160217285,2.4660000801086426 1.9819999933242798,2.4660000801086426 1.9819999933242798,2.4660000801086426 C0.5049999952316284,2.486999988555908 -0.9160000085830688,1.8990000486373901 -1.9450000524520874,0.8399999737739563 C-3.006999969482422,-0.18700000643730164 -3.5959999561309814,-1.6080000400543213 -3.572000026702881,-3.0840001106262207 C-3.5929999351501465,-4.560999870300293 -3.003999948501587,-5.980000019073486 -1.9450000524520874,-7.007999897003174 C-0.9179999828338623,-8.067999839782715 0.5019999742507935,-8.656999588012695 1.9789999723434448,-8.633999824523926 C1.9789999723434448,-8.633999824523926 10.70300006866455,-8.633999824523926 10.70300006866455,-8.633999824523926 C10.70300006866455,-8.633999824523926 8.682000160217285,-5.129000186920166 8.682000160217285,-5.129000186920166 C8.682000160217285,-5.129000186920166 7.861000061035156,-3.700000047683716 7.861000061035156,-3.700000047683716 C7.861000061035156,-3.700000047683716 1.9789999723434448,-3.700000047683716 1.9789999723434448,-3.700000047683716 C1.6399999856948853,-3.7009999752044678 1.3639999628067017,-3.427000045776367 1.3630000352859497,-3.0880000591278076 C1.3630000352859497,-2.9240000247955322 1.4290000200271606,-2.7660000324249268 1.5460000038146973,-2.6500000953674316 C1.659999966621399,-2.5329999923706055 1.815999984741211,-2.4670000076293945 1.9789999723434448,-2.4679999351501465 C1.9789999723434448,-2.4679999351501465 5.679999828338623,-2.4679999351501465 5.679999828338623,-2.4679999351501465 C8.739999771118164,-2.4700000286102295 11.220000267028809,0.009999999776482582 11.220999717712402,3.069000005722046 C11.220999717712402,3.069000005722046 11.220999717712402,3.0820000171661377 11.220999717712402,3.0820000171661377 C11.220999717712402,3.0820000171661377 11.225000381469727,3.0829999446868896 11.225000381469727,3.0829999446868896z"></path></g><g opacity="1" transform="matrix(1,0,0,1,0,0)"><path fill="rgb(255,255,255)" fill-opacity="1" d=" M37.47200012207031,19.069000244140625"></path><path stroke-linecap="butt" stroke-linejoin="miter" fill-opacity="0" stroke-miterlimit="4" stroke="rgb(255,255,255)" stroke-opacity="1" stroke-width="5" d=" M37.47200012207031,19.069000244140625"></path></g></g></g><g opacity="1" transform="matrix(1,0,0,1,9.154999732971191,41.88999938964844)"><path stroke-linecap="round" stroke-linejoin="miter" fill-opacity="0" stroke-miterlimit="10" stroke="rgb(255,74,88)" stroke-opacity="1" stroke-width="1.3" d=" M-2.7109999656677246,4.770999908447266 C-2.7109999656677246,4.770999908447266 2.7109999656677246,-4.770999908447266 2.7109999656677246,-4.770999908447266"></path></g><g opacity="1" transform="matrix(1,0,0,1,5.4679999351501465,43.619998931884766)"><path stroke-linecap="round" stroke-linejoin="miter" fill-opacity="0" stroke-miterlimit="10" stroke="rgb(255,255,255)" stroke-opacity="1" stroke-width="1.3" d=" M-4.26200008392334,7.328999996185303 C-4.26200008392334,7.328999996185303 4.26200008392334,-7.328999996185303 4.26200008392334,-7.328999996185303"></path></g><g opacity="1" transform="matrix(1,0,0,1,28.61199951171875,7.979000091552734)"><path stroke-linecap="round" stroke-linejoin="miter" fill-opacity="0" stroke-miterlimit="10" stroke="rgb(255,255,255)" stroke-opacity="1" stroke-width="1.3" d=" M-4.173999786376953,7.177999973297119 C-4.173999786376953,7.177999973297119 3.622999906539917,-6.230999946594238 4.145999908447266,-7.13100004196167"></path></g><g opacity="1" transform="matrix(1,0,0,1,24.000999450683594,11.024999618530273)"><path stroke-linecap="round" stroke-linejoin="miter" fill-opacity="0" stroke-miterlimit="10" stroke="rgb(255,74,88)" stroke-opacity="1" stroke-width="1.3" d=" M-2.7739999294281006,4.770999908447266 C-2.7739999294281006,4.770999908447266 2.7739999294281006,-4.770999908447266 2.7739999294281006,-4.770999908447266"></path></g></g></g></svg>